<?xml version="1.0" encoding="UTF-8"?>
<svg id="Layer_1" xmlns="http://www.w3.org/2000/svg" version="1.1" viewBox="0 0 24 24">
  <!-- Generator: Adobe Illustrator 29.2.1, SVG Export Plug-In . SVG Version: 2.1.0 Build 116)  -->
  <path
    d="M8,20v-2h2V6h-2v-2h2c.6,0,1,.2,1.4.6s.6.9.6,1.4v12c0,.6-.2,1-.6,1.4s-.9.6-1.4.6h-2ZM16,20c-.6,0-1-.2-1.4-.6s-.6-.9-.6-1.4V6c0-.6.2-1,.6-1.4s.9-.6,1.4-.6h5c.6,0,1,.2,1.4.6s.6.9.6,1.4v12c0,.6-.2,1-.6,1.4s-.9.6-1.4.6h-5ZM16,18h5V6h-5v12ZM5,16l-1.4-1.4,1.6-1.6H1v-2h4.2l-1.6-1.6,1.4-1.4,4,4-4,4ZM16,18V6v12Z"
    style="fill: currentColor" />
</svg>