<?xml version="1.0" encoding="utf-8"?>
<!-- Generator: Adobe Illustrator 24.2.3, SVG Export Plug-In . SVG Version: 6.00 Build 0)  -->
<svg version="1.1" xmlns="http://www.w3.org/2000/svg" xmlns:xlink="http://www.w3.org/1999/xlink" x="0px" y="0px"
	 viewBox="0 0 646.1 419.1" style="enable-background:new 0 0 646.1 419.1;" xml:space="preserve">
<style type="text/css">
	.st0{fill:#465166;}
	.st1{fill:#8094B3;}
	.st2{fill:#FFFFFF;}
	.st3{fill:#A3C4FF;}
	.st4{fill:#333333;}
	.st5{fill:#FFFFFF;stroke:#1D1D1B;stroke-miterlimit:10;}
	.st6{fill:#B1B1B1;stroke:#1D1D1B;stroke-miterlimit:10;}
	.st7{fill:#1D1D1B;}
	.st8{fill:none;stroke:#465166;stroke-width:0;stroke-miterlimit:10;}
	.st9{fill:#FF0000;}
	.st10{fill:#5E7091;}
	.st11{fill:#FFAD33;}
	.st12{fill:#FEE397;}
	.st13{fill:#236051;}
	.st14{fill:#72CD86;}
	.st15{fill:#584560;}
	.st16{fill:#C2A7CD;}
	.st17{fill:#C4C4C4;}
	.st18{fill:url(#SVGID_3_);}
	.st19{fill:none;stroke:#5E7091;stroke-width:3.0466;stroke-miterlimit:10;}
	.st20{fill:none;stroke:#ABC9FF;stroke-width:27.642;stroke-miterlimit:10;}
	.st21{fill:none;stroke:#5E7091;stroke-width:4.0384;stroke-miterlimit:10;}
	.st22{fill:none;stroke:#5E7091;stroke-width:9.4228;stroke-miterlimit:10;}
	.st23{fill:none;stroke:#ABC9FF;stroke-width:4.2806;stroke-miterlimit:10;}
	.st24{fill:none;stroke:#5E7091;stroke-width:4.2806;stroke-miterlimit:10;}
	.st25{fill:#ABC9FF;}
	.st26{fill:#ADB4C7;}
	.st27{fill:none;stroke:#5E7091;stroke-width:2.6452;stroke-miterlimit:10;}
	.st28{fill:none;stroke:#ABC9FF;stroke-width:24.0005;stroke-miterlimit:10;}
	.st29{fill:none;stroke:#5E7091;stroke-width:3.5063;stroke-miterlimit:10;}
	.st30{fill:none;stroke:#5E7091;stroke-width:8.1815;stroke-miterlimit:10;}
	.st31{fill:none;stroke:#ABC9FF;stroke-width:3.7167;stroke-miterlimit:10;}
	.st32{fill:none;stroke:#5E7091;stroke-width:3.7167;stroke-miterlimit:10;}
	.st33{fill:none;}
	.st34{fill-rule:evenodd;clip-rule:evenodd;}
	.st35{fill:none;stroke:#000000;stroke-width:0.7785;stroke-miterlimit:3.8637;}
	.st36{stroke:#000000;stroke-width:9.340157e-02;stroke-miterlimit:3.8637;}
	.st37{fill:#7486A8;}
	.st38{fill:#FFFFFF;stroke:#465166;stroke-width:0.8912;stroke-miterlimit:10;}
	.st39{fill:#662D91;}
	.st40{fill:#FF4F05;}
	.st41{fill:#1B1464;}
	.st42{fill:#FFA3F0;}
	.st43{fill:#6C25CF;}
	.st44{fill:#FFFFFF;stroke:#465166;stroke-width:0.7896;stroke-miterlimit:10;}
	.st45{fill:#333333;stroke:#8094B3;stroke-width:0.4499;stroke-miterlimit:10;}
	.st46{clip-path:url(#SVGID_7_);}
	.st47{clip-path:url(#SVGID_11_);}
	.st48{fill:#EDECED;}
	.st49{fill:none;stroke:#000000;stroke-width:1.2826;stroke-miterlimit:3.8637;}
	.st50{stroke:#000000;stroke-width:0.1539;stroke-miterlimit:3.8637;}
	.st51{fill:#085DA9;}
	.st52{fill:#E1081A;}
	.st53{clip-path:url(#SVGID_17_);fill:#1D1D1B;}
	.st54{clip-path:url(#SVGID_17_);fill:#FFCC00;}
	.st55{fill:#0032BA;}
	.st56{fill:#E30613;}
	.st57{fill:#354A70;}
	.st58{fill:#667A9E;}
	.st59{opacity:0.6;}
	.st60{fill:#90A7C9;}
	.st61{fill:none;stroke:#000000;stroke-width:1.0436;stroke-miterlimit:3.8637;}
	.st62{stroke:#000000;stroke-width:0.1252;stroke-miterlimit:3.8637;}
	.st63{clip-path:url(#SVGID_19_);fill:#1D1D1B;}
	.st64{clip-path:url(#SVGID_19_);fill:#FFCC00;}
	.st65{fill:#4F59CA;}
	.st66{fill:#7B82EA;}
	.st67{fill:#4C53BB;}
	.st68{opacity:0.2;enable-background:new    ;}
	.st69{fill:none;stroke:#C24DFF;stroke-miterlimit:10;}
	.st70{fill:none;stroke:#C24DFF;stroke-width:1.2664;stroke-miterlimit:10;}
	.st71{fill:none;stroke:#C24DFF;stroke-width:1.1508;stroke-miterlimit:10;}
	.st72{fill:none;stroke:#C24DFF;stroke-width:1.1514;stroke-miterlimit:10;}
	.st73{fill:none;stroke:#C24DFF;stroke-width:4;stroke-miterlimit:10;}
	.st74{fill:#C24DFF;}
	.st75{fill:url(#SVGID_20_);}
	.st76{fill:#00A5D9;}
	.st77{fill:#035C8D;}
	.st78{fill:#F8D200;}
	.st79{clip-path:url(#SVGID_22_);fill:#1D1D1B;}
	.st80{clip-path:url(#SVGID_22_);fill:#FFCC00;}
	.st81{clip-path:url(#SVGID_24_);}
	.st82{fill-rule:evenodd;clip-rule:evenodd;fill:#8094B3;}
	.st83{fill-rule:evenodd;clip-rule:evenodd;fill:#D8DCE5;}
	.st84{fill-rule:evenodd;clip-rule:evenodd;fill:#EDEFF2;}
	.st85{fill:none;stroke:#FFFFFF;stroke-width:0.8661;stroke-linejoin:round;stroke-miterlimit:10;}
	.st86{fill:none;stroke:#FFFFFF;stroke-width:2.5984;stroke-linejoin:round;stroke-miterlimit:10;}
	.st87{fill-rule:evenodd;clip-rule:evenodd;fill:none;}
	.st88{fill-rule:evenodd;clip-rule:evenodd;fill:#FEE397;}
	.st89{fill-rule:evenodd;clip-rule:evenodd;fill:#FFAD33;}
	.st90{fill-rule:evenodd;clip-rule:evenodd;fill:#C2A7CD;}
	.st91{fill:url(#SVGID_29_);}
	.st92{fill:#2E3F5E;}
	.st93{fill:none;stroke:#000000;stroke-width:0.3905;stroke-miterlimit:3.8637;}
	.st94{stroke:#000000;stroke-width:4.684884e-02;stroke-miterlimit:3.8637;}
	.st95{clip-path:url(#SVGID_33_);fill:#1D1D1B;}
	.st96{clip-path:url(#SVGID_33_);fill:#FFCC00;}
	.st97{fill:url(#SVGID_34_);}
	.st98{clip-path:url(#SVGID_38_);fill:#1D1D1B;}
	.st99{clip-path:url(#SVGID_38_);fill:#FFCC00;}
	.st100{fill:#FBB03B;}
	.st101{fill:#F7931E;}
	.st102{fill:none;stroke:#C24DFF;stroke-width:1.1078;stroke-miterlimit:10;}
	.st103{fill:url(#SVGID_39_);}
	.st104{clip-path:url(#SVGID_43_);fill:#1D1D1B;}
	.st105{clip-path:url(#SVGID_43_);fill:#FFCC00;}
	.st106{fill:url(#SVGID_44_);}
	.st107{clip-path:url(#SVGID_48_);fill:#1D1D1B;}
	.st108{clip-path:url(#SVGID_48_);fill:#FFCC00;}
	.st109{fill:#F15A24;}
	.st110{fill:#839DCC;}
	.st111{fill:#9EB3D7;}
	.st112{fill:none;stroke:#FFFFFF;stroke-width:4;stroke-miterlimit:10;}
	.st113{fill:#8CC63F;}
	.st114{fill:#231F20;}
</style>
<g id="Layer_1">
	<g>
		<g>
			<path class="st2" d="M234.6,205.5c-0.4-2-0.9-4-1.5-6c-0.5-1.5-1-3-1.6-4.4c-0.7-0.3-1.4-0.7-2.1-1.2c-3.3-2.2-5.5-5.6-6.2-9.4
				c-0.3-1.3-0.3-2.6-0.2-3.9c-1-1.2-2-2.4-3.1-3.5c-12.8-13.2-31.8-19.9-51.1-16.2c-15.5,3-28.3,12.1-36.3,24.4
				c-7.8,11.8-11.1,26.5-8.2,41.5c5.2,26.9,28.8,45.6,55.2,45.6c3.5,0,7.1-0.3,10.7-1c26.8-5.2,45.6-28.8,45.6-55.2
				C235.7,212.6,235.3,209.1,234.6,205.5z M185.3,246.8c-16.9,3.3-33.3-7.8-36.6-24.7c-3.3-16.9,7.8-33.3,24.7-36.6
				c2-0.4,4-0.6,5.9-0.6c14.7,0,27.8,10.4,30.6,25.3C213.3,227.1,202.2,243.5,185.3,246.8z"/>
		</g>
		<g>
			<path class="st2" d="M293.3,188.3c2.9,1.1,6.1,1.7,9.6,1.7c3.3,0,6.1-0.4,8.2-1.2c2.2-0.8,4.2-2,6-3.4v-10.4
				c-1,1.1-2.2,2.2-3.5,3.1c-1.4,0.9-2.9,1.7-4.6,2.3c-1.7,0.6-3.6,0.8-5.7,0.8c-2.6,0-5-0.6-7.2-1.8c-2.2-1.2-4-2.9-5.3-5.1
				c-1.4-2.2-2-4.8-2-7.8c0-3,0.7-5.6,2-7.8c1.4-2.2,3.1-3.9,5.3-5.1c2.2-1.2,4.6-1.8,7.2-1.8c2.2,0,4.1,0.3,5.7,0.8
				c1.7,0.6,3.2,1.3,4.6,2.3c1.4,0.9,2.5,2,3.5,3.1v-10.4c-1.9-1.5-3.9-2.6-6-3.4c-2.2-0.8-4.9-1.2-8.2-1.2c-3.4,0-6.6,0.6-9.6,1.7
				c-2.9,1.1-5.5,2.7-7.7,4.8c-2.2,2.1-3.9,4.6-5,7.5c-1.2,2.9-1.8,6-1.8,9.5s0.6,6.7,1.8,9.5c1.2,2.9,2.9,5.3,5,7.5
				C287.8,185.6,290.4,187.2,293.3,188.3z"/>
			<path class="st2" d="M327.8,185.2c1.5,1.5,3.3,2.7,5.3,3.5c2,0.8,4.3,1.2,6.7,1.2c2.4,0,4.7-0.4,6.7-1.2c2-0.8,3.8-2,5.3-3.5
				c1.5-1.5,2.7-3.3,3.5-5.3c0.8-2,1.2-4.2,1.2-6.6c0-2.4-0.4-4.6-1.2-6.6c-0.8-2-2-3.7-3.5-5.2c-1.5-1.5-3.3-2.6-5.3-3.4
				c-2-0.8-4.2-1.2-6.6-1.2c-2.4,0-4.6,0.4-6.6,1.2c-2,0.8-3.8,1.9-5.3,3.4c-1.5,1.5-2.7,3.2-3.5,5.2c-0.8,2-1.3,4.2-1.3,6.6
				c0,2.4,0.4,4.6,1.2,6.6C325.1,181.9,326.3,183.7,327.8,185.2z M331.2,167.9c0.8-1.6,2-2.8,3.5-3.7c1.5-0.9,3.2-1.4,5.2-1.4
				c2,0,3.7,0.5,5.2,1.4c1.5,0.9,2.6,2.1,3.4,3.7c0.8,1.6,1.2,3.4,1.2,5.4c0,2-0.4,3.8-1.2,5.4c-0.8,1.6-2,2.8-3.5,3.7
				c-1.5,0.9-3.2,1.4-5.2,1.4s-3.7-0.5-5.2-1.4c-1.5-0.9-2.6-2.1-3.5-3.7c-0.8-1.6-1.3-3.4-1.3-5.4
				C329.9,171.2,330.3,169.5,331.2,167.9z"/>
			<polygon class="st2" points="367.8,169.5 390.3,190.7 390.3,157.4 384.1,157.4 384.1,177.1 361.6,155.9 361.6,189.1 367.8,189.1 
							"/>
			<polygon class="st2" points="403.4,169.5 425.9,190.7 425.9,157.4 419.7,157.4 419.7,177.1 397.2,155.9 397.2,189.1 403.4,189.1 
							"/>
			<polygon class="st2" points="436.9,157.4 432.8,157.4 432.8,189.1 436.9,189.1 439,189.1 452.9,189.1 452.9,183.6 439,183.6 
				439,175 452,175 452,169.6 439,169.6 439,162.9 452.9,162.9 452.9,157.4 439,157.4 			"/>
			<path class="st2" d="M474.3,156.8c-2.4,0-4.6,0.4-6.7,1.2c-2.1,0.8-3.9,1.9-5.4,3.4c-1.5,1.5-2.7,3.2-3.5,5.2
				c-0.8,2-1.2,4.2-1.2,6.7c0,2.4,0.4,4.7,1.2,6.7c0.8,2,2,3.7,3.5,5.2c1.5,1.5,3.3,2.6,5.4,3.4c2.1,0.8,4.3,1.2,6.7,1.2
				c2.3,0,4.2-0.3,5.8-0.9c1.5-0.6,2.9-1.4,4.2-2.4v-7.3c-0.7,0.8-1.5,1.5-2.5,2.2c-0.9,0.7-2,1.2-3.2,1.6c-1.2,0.4-2.5,0.6-4,0.6
				c-1.8,0-3.5-0.4-5-1.2c-1.5-0.8-2.8-2-3.7-3.6c-0.9-1.6-1.4-3.4-1.4-5.4c0-2.1,0.5-3.9,1.4-5.5s2.2-2.7,3.7-3.5
				c1.5-0.8,3.2-1.2,5-1.2c1.5,0,2.8,0.2,4,0.6c1.2,0.4,2.2,0.9,3.2,1.6c0.9,0.7,1.8,1.4,2.5,2.2v-7.3c-1.3-1-2.7-1.8-4.2-2.4
				C478.6,157.1,476.6,156.8,474.3,156.8z"/>
			<polygon class="st2" points="486.2,163.3 494.7,163.3 494.7,189.1 501.2,189.1 501.2,163.3 509.7,163.3 509.7,157.4 486.2,157.4 
							"/>
			<polygon class="st2" points="517.5,157.4 513.4,157.4 513.4,189.1 517.5,189.1 519.6,189.1 533.5,189.1 533.5,183.6 519.6,183.6 
				519.6,175 532.6,175 532.6,169.6 519.6,169.6 519.6,162.9 533.5,162.9 533.5,157.4 519.6,157.4 			"/>
			<path class="st2" d="M565.1,164.9c-1.4-2.4-3.3-4.2-5.8-5.5c-2.5-1.3-5.4-1.9-8.7-1.9h-4.2H544h-4.2v31.6h4.2h2.4h4.2
				c3.3,0,6.2-0.6,8.7-1.9c2.5-1.3,4.4-3.1,5.8-5.5c1.4-2.4,2.1-5.2,2.1-8.4C567.2,170,566.5,167.2,565.1,164.9z M559.8,177.8
				c-0.5,1.3-1.3,2.3-2.2,3.1c-0.9,0.8-2,1.4-3.3,1.8c-1.2,0.4-2.5,0.6-3.9,0.6h-3.9v-19.9h3.9c1.4,0,2.7,0.2,3.9,0.6
				c1.2,0.4,2.3,1,3.3,1.8c0.9,0.8,1.7,1.8,2.2,3.1c0.5,1.3,0.8,2.7,0.8,4.5C560.5,175,560.3,176.5,559.8,177.8z"/>
			<path class="st2" d="M315.7,200.5h-9.2v29.8c0,2.6-0.7,4.7-2,6.2c-1.4,1.6-3.4,2.4-6,2.4c-2.7,0-4.7-0.8-6-2.4
				c-1.4-1.6-2-3.6-2-6.2v-29.8h-9.2v30.3c0,2.7,0.4,5,1.3,7c0.9,2,2.1,3.7,3.6,5.1s3.4,2.4,5.5,3.1c2.1,0.7,4.4,1.1,6.9,1.1
				c2.5,0,4.7-0.4,6.8-1.1c2.1-0.7,3.9-1.8,5.5-3.1c1.6-1.4,2.8-3.1,3.6-5.1c0.9-2,1.3-4.4,1.3-7V200.5z"/>
			<path class="st2" d="M344.7,229.4c0.9-1.5,1.4-3.3,1.4-5.3c0-2-0.5-3.8-1.4-5.3c-0.9-1.5-2.3-2.7-4-3.5c-1.7-0.8-3.9-1.3-6.4-1.3
				h-4.2h-2.5h-3.9v31.6h6.5v-11.5h2.8l7.4,11.5h7.6l-8.6-12.2c0.4-0.1,0.9-0.3,1.2-0.5C342.4,232.1,343.8,230.9,344.7,229.4z
				 M338.8,226.8c-0.5,0.7-1.1,1.3-1.9,1.6c-0.8,0.4-1.8,0.6-3,0.6h-3.8v-9.5h3.8c1.1,0,2.1,0.2,3,0.6c0.8,0.4,1.5,0.9,1.9,1.6
				c0.5,0.7,0.7,1.6,0.7,2.6C339.4,225.3,339.2,226.1,338.8,226.8z"/>
			<path class="st2" d="M371.1,229.9c-0.9-0.6-1.9-1-2.9-1.3c1.4-0.6,2.6-1.4,3.4-2.4c0.9-1.1,1.4-2.5,1.4-4.1
				c0-1.8-0.5-3.3-1.4-4.5c-0.9-1.2-2.2-2.1-3.8-2.6c-1.6-0.6-3.5-0.9-5.6-0.9h-10.5v31.6h11.2c2.3,0,4.4-0.3,6.2-0.9
				c1.8-0.6,3.2-1.6,4.1-2.9c1-1.3,1.5-3,1.5-5.1c0-1.6-0.3-2.9-1-4C373.1,231.5,372.2,230.6,371.1,229.9z M361.6,219.2
				c1.4,0,2.5,0.3,3.4,0.9c0.8,0.6,1.2,1.6,1.2,2.8c0,0.8-0.2,1.5-0.6,2c-0.4,0.6-0.9,1-1.6,1.3c-0.7,0.3-1.5,0.5-2.4,0.5h-3.5v-7.5
				H361.6z M367.3,238.5c-0.5,0.7-1.2,1.2-2.1,1.5c-0.9,0.3-1.9,0.5-2.9,0.5h-4.2v-9.1h4.2c0.8,0,1.6,0.1,2.3,0.2
				c0.7,0.2,1.3,0.4,1.8,0.8c0.5,0.4,0.9,0.8,1.2,1.4c0.3,0.6,0.4,1.2,0.4,2C368.1,236.9,367.8,237.8,367.3,238.5z"/>
			<path class="st2" d="M376.1,245.7h7.3l3.3-7.2h10.9l3.3,7.2h7.3l-16-33.5L376.1,245.7z M396.1,233.4h-7.9l4-9.1L396.1,233.4z"/>
			<polygon class="st2" points="434.2,233.6 411.7,212.4 411.7,245.7 417.9,245.7 417.9,226 440.4,247.2 440.4,214 434.2,214 			"/>
			<polygon class="st2" points="280.8,265.4 292.9,265.4 292.9,302.2 302.2,302.2 302.2,265.4 314.4,265.4 314.4,257 280.8,257 			
				"/>
			<polygon class="st2" points="347.1,290.3 338.2,269 329.4,290.3 322.5,270.6 315,270.6 328.2,304 338.2,283.2 348.2,304 
				361.5,270.6 353.9,270.6 			"/>
			<rect x="365.2" y="270.6" class="st2" width="6.6" height="31.6"/>
			<polygon class="st2" points="401.1,290.2 378.5,269 378.5,302.2 384.8,302.2 384.8,282.6 407.3,303.8 407.3,270.6 401.1,270.6 
							"/>
			<path class="st2" d="M433.6,287.1c-0.8-0.8-1.6-1.4-2.6-2c-0.9-0.5-1.9-1-3-1.4c-1.6-0.5-2.9-1.1-4-1.6c-1.1-0.5-1.8-1.1-2.3-1.7
				c-0.5-0.6-0.8-1.3-0.8-2.1c0-0.8,0.3-1.5,0.9-2.1c0.6-0.6,1.6-0.9,2.8-0.9c1,0,1.8,0.2,2.6,0.6c0.8,0.4,1.4,0.9,2,1.5
				c0.6,0.6,1.1,1.3,1.5,2.1l5.1-2.8c-0.5-1.1-1.3-2.2-2.3-3.2c-1-1-2.2-1.9-3.7-2.6c-1.5-0.7-3.2-1-5.2-1c-2,0-3.7,0.4-5.3,1.1
				c-1.6,0.7-2.8,1.7-3.8,3c-0.9,1.3-1.4,2.9-1.4,4.7c0,1.5,0.3,2.8,0.9,3.9c0.6,1.1,1.3,2,2.2,2.7c0.9,0.7,1.8,1.3,2.8,1.8
				c1,0.5,1.8,0.8,2.6,1.1c1.4,0.5,2.6,1,3.6,1.5c1,0.5,1.7,1,2.2,1.6c0.5,0.6,0.7,1.4,0.7,2.4c0,1.1-0.4,2-1.2,2.7
				c-0.8,0.7-1.9,1-3.2,1c-1.1,0-2.2-0.2-3.1-0.7c-1-0.5-1.8-1.2-2.6-2c-0.8-0.9-1.5-1.9-2.2-3.1l-4.6,3.3c0.7,1.5,1.7,2.8,2.9,4.1
				c1.2,1.3,2.7,2.3,4.4,3c1.7,0.7,3.5,1.1,5.4,1.1c1.4,0,2.8-0.2,4.1-0.7c1.3-0.4,2.5-1.1,3.5-1.9c1.1-0.8,1.9-1.8,2.5-3.1
				c0.6-1.2,0.9-2.6,0.9-4.1c0-1.4-0.2-2.6-0.7-3.6C434.9,288.7,434.3,287.8,433.6,287.1z"/>
		</g>
		<g>
			<g>
				<path class="st2" d="M154.1,107.9c-0.7,0.1-1.4,0.2-2.1,0.2c-5.1,0-9.6-3.6-10.6-8.8c-1.1-5.9,2.7-11.6,8.6-12.7
					c0.7-0.1,1.4-0.2,2.1-0.2c5.1,0,9.6,3.6,10.6,8.8C163.8,101.1,160,106.8,154.1,107.9z"/>
			</g>
		</g>
		<g>
			<g>
				<path class="st2" d="M239.8,192.3c-0.7,0.1-1.4,0.2-2.1,0.2c-5.1,0-9.6-3.6-10.6-8.8c-1.1-5.9,2.7-11.6,8.6-12.7
					c0.7-0.1,1.4-0.2,2.1-0.2c5.1,0,9.6,3.6,10.6,8.8C249.5,185.5,245.7,191.2,239.8,192.3z"/>
			</g>
		</g>
		<g>
			<g>
				<path class="st2" d="M241.6,332.5c-0.7,0.1-1.4,0.2-2.1,0.2c-5.1,0-9.6-3.6-10.6-8.8c-1.1-5.9,2.7-11.6,8.6-12.7
					c0.7-0.1,1.4-0.2,2.1-0.2c5.1,0,9.6,3.6,10.6,8.8C251.3,325.7,247.5,331.4,241.6,332.5z"/>
			</g>
		</g>
		<g>
			<path class="st2" d="M257.6,318.4c-0.9-4.8-3.7-9-7.8-11.8c-4.1-2.8-9-3.8-13.8-2.8c-0.6,0.1-1.1,0.2-1.6,0.4c0,0,0,0,0,0
				l-15.6-27.4c0,0,0,0,0,0c8-5.2,14.9-12,20.4-20.1c10.8-16,14.8-35.2,11.1-54.2c-0.4-2.1-0.9-4.1-1.5-6.2c1.5-1.2,2.9-2.6,4-4.3
				c2.8-4.1,3.8-9,2.8-13.8c-1.9-10-11.6-16.5-21.6-14.6c-1.4,0.3-2.7,0.7-3.9,1.2c-16.6-16.4-39.7-23.8-62.8-20c0,0,0,0,0,0
				l-7.3-31.1c0,0,0,0,0,0c2.8-1.4,5.2-3.5,7-6.1c2.3-3.4,3.4-7.3,3.1-11.4c23.4-1.8,46.9,3.4,67.4,14.8c0.2-0.5,0.5-1.1,0.9-1.6
				c0.2-0.3,0.4-0.5,0.6-0.8c-21.1-11.7-45.2-17-69.2-15.2c-2-9.8-11.6-16.2-21.5-14.3c-10,1.9-16.5,11.6-14.6,21.6
				c0.9,4.8,3.7,9,7.8,11.8c3.1,2.1,6.6,3.2,10.3,3.2l0.8,3.5c-20.3,5.6-38.5,17.5-51.8,34c-14.5,18-22.3,40.5-22.1,63.4l0,0
				c0,0.2,0,0.5,0,0.7c0,0.2,0,0.4,0,0.6l0,0c0,0,0,0,0,0c0.1,5.8,0.7,11.6,1.8,17.3c2.3,12,6.8,23.5,13.2,33.9
				c0.9-0.8,1.9-1.5,3.1-2c-6.1-9.9-10.5-21-12.7-32.6c-1.1-5.7-1.7-11.5-1.8-17.3c-0.5-44.3,28.9-82.8,71.1-94.5l5.6,24
				c-13,3.8-24.6,11-33.6,21.1c2.8,1,5,3,6.4,5.7c9.2-10.3,21.5-17.3,35.3-19.9c20.4-3.9,41.2,2.2,56.1,16.5
				c-1.7,2.1-2.9,4.5-3.6,7.1c-0.7,2.6-0.8,5.3-0.2,8c0.9,4.8,3.7,9,7.8,11.8c1.8,1.2,3.7,2.1,5.7,2.6c1.5,0.4,3,0.6,4.5,0.6
				c1.1,0,2.3-0.1,3.4-0.3c0.4,1.4,0.7,2.8,1,4.3c3.2,16.7-0.3,33.7-9.8,47.8c-9.5,14.1-24,23.6-40.7,26.9
				c-16.7,3.2-33.7-0.3-47.8-9.8c-14.1-9.5-23.6-24-26.9-40.7c-2.5-13-0.9-26.2,4.4-38.1c-3-0.2-5.8-1.5-7.7-3.6
				c-6.1,13.5-7.9,28.5-5,43.3c2.1,10.8,6.5,20.7,12.8,29.3l-12.7,9.9c0.9,0.8,1.7,1.8,2.2,2.9l12.7-9.9c4.4,5.3,9.5,10.1,15.4,14
				c12.1,8.2,26.1,12.4,40.4,12.4c4.6,0,9.2-0.4,13.8-1.3c6.4-1.2,12.6-3.3,18.3-6.1l8.2,14.3c-7.3,3.7-15.2,6.4-23.4,8
				c-12.7,2.4-25.6,2.1-38-1c-0.1,1.3-0.4,2.6-0.9,3.8c7.2,1.8,14.7,2.7,22.1,2.7c5.9,0,11.8-0.6,17.6-1.7
				c8.6-1.7,16.8-4.5,24.5-8.4l5.5,9.7c-1,0.9-1.9,2-2.7,3.2c-2.7,4.1-3.8,9-2.8,13.8c0.9,4.8,3.7,9,7.8,11.8
				c3.1,2.1,6.6,3.2,10.3,3.2c1.2,0,2.4-0.1,3.5-0.3c4.8-0.9,9-3.7,11.8-7.8C257.6,328.1,258.6,323.2,257.6,318.4z M137.5,100.1
				c-1.5-8,3.7-15.7,11.7-17.3c0.9-0.2,1.9-0.3,2.8-0.3c6.7,0,12.7,4.6,14.3,11.3c0.1,0.2,0.1,0.4,0.1,0.6c0.1,0.7,0.2,1.4,0.3,2.1
				c0.2,3.2-0.7,6.3-2.5,9c-1.7,2.5-4.1,4.4-6.9,5.5c0,0,0,0,0,0l-3.9,0.9c0,0,0,0,0,0c0,0,0,0,0,0c-3.4,0.3-6.8-0.5-9.6-2.5
				C140.5,107.3,138.3,104,137.5,100.1z M231.6,195.1c-0.7-0.3-1.4-0.7-2.1-1.2c-3.3-2.2-5.5-5.6-6.2-9.4c-0.3-1.3-0.3-2.6-0.2-3.9
				c0.3-3.7,1.9-7.1,4.6-9.6c2-1.9,4.5-3.2,7.3-3.8c0.9-0.2,1.9-0.3,2.8-0.3c6.9,0,13.1,4.9,14.5,12c0.7,3.9-0.1,7.8-2.3,11.1
				c-2.2,3.3-5.6,5.5-9.4,6.2C237.5,196.8,234.3,196.4,231.6,195.1z M251.8,330.1c-2.2,3.3-5.6,5.5-9.4,6.2
				c-3.9,0.7-7.8-0.1-11.1-2.3c-3.3-2.2-5.5-5.6-6.2-9.4c-0.7-3.9,0.1-7.8,2.3-11.1c2.2-3.3,5.6-5.5,9.4-6.2
				c0.9-0.2,1.9-0.3,2.8-0.3c2.9,0,5.8,0.9,8.2,2.5c3.3,2.2,5.5,5.6,6.2,9.4C254.8,322.9,254,326.8,251.8,330.1z"/>
			<path class="st2" d="M107.8,274.2c-0.5-1.2-1.3-2.2-2.2-2.9c-1.2-0.9-2.7-1.5-4.3-1.5c-0.4,0-0.9,0-1.4,0.1
				c-0.3,0.1-0.6,0.1-0.9,0.2c-1.2,0.4-2.3,1.1-3.1,2c-1.5,1.6-2.2,3.9-1.7,6.1c0.7,3.4,3.7,5.8,7,5.8c0.5,0,0.9,0,1.4-0.1
				c3.9-0.7,6.4-4.5,5.7-8.4C108.2,275.1,108,274.6,107.8,274.2z"/>
			<path class="st2" d="M147.4,294.5c-0.5,0-0.9,0-1.4,0.1c-3.9,0.8-6.4,4.5-5.7,8.4c0.7,3.4,3.7,5.8,7,5.8c0.5,0,0.9,0,1.4-0.1
				c2.2-0.4,3.9-1.8,4.9-3.6c0.6-1.1,1-2.4,0.9-3.8c0-0.3,0-0.7-0.1-1C153.8,296.9,150.8,294.5,147.4,294.5z"/>
			<path class="st2" d="M247.6,122.7c0.5,0,0.9,0,1.4-0.1c3.9-0.7,6.4-4.5,5.7-8.4c-0.7-3.4-3.7-5.8-7-5.8c-0.5,0-0.9,0-1.4,0.1
				c-1.5,0.3-2.8,1-3.8,2c-0.7,0.7-1.2,1.5-1.5,2.3c-0.5,1.2-0.7,2.6-0.4,4C241.3,120.3,244.3,122.7,247.6,122.7z"/>
			<path class="st2" d="M121.8,186.5c0.4,0,0.8,0,1.3-0.1c0.1,0,0.1,0,0.2,0c4.3-0.8,7-4.9,6.2-9.2c0-0.2-0.1-0.3-0.1-0.5
				c-0.8-3.1-3.3-5.3-6.3-5.8c-0.4-0.1-0.9-0.1-1.3-0.1c-0.5,0-1,0.1-1.5,0.1c-4.3,0.8-7,4.9-6.2,9.2c0.2,1,0.6,2,1.2,2.8
				C116.7,185.1,119.1,186.5,121.8,186.5z"/>
		</g>
	</g>
</g>
<g id="Layer_2">
</g>
</svg>
