<?xml version="1.0" encoding="UTF-8"?>
<svg id="Ebene_2" data-name="Ebene 2" xmlns="http://www.w3.org/2000/svg" viewBox="0 0 127.56 127.66">
  <defs>
    <style>
      .cls-1 {
        fill: #ffe49b;
      }

      .cls-2 {
        fill: #fed363;
      }

      .cls-3 {
        fill: #9cb0dc;
      }

      .cls-4 {
        fill: #b7caea;
      }

      .cls-5 {
        fill: #8398ce;
      }
    </style>
  </defs>
  <g id="Model_Builder" data-name="Model Builder">
    <rect class="cls-5" x="91.81" y=".02" width="35.75" height="35.75"/>
    <rect class="cls-3" x="91.76" y="45.95" width="35.75" height="35.52" rx="1.95" ry="1.95"/>
    <rect class="cls-2" x=".48" y="91.74" width="35.75" height="35.75" rx="17.87" ry="17.87"/>
    <rect class="cls-3" x="45.91" y=".11" width="35.75" height="35.52" rx="1.95" ry="1.95"/>
    <rect class="cls-4" x=".22" width="35.75" height="35.75" rx="7.04" ry="7.04"/>
    <rect class="cls-1" y="45.95" width="35.75" height="35.75" rx="13.96" ry="13.96"/>
    <rect class="cls-4" x="13.11" y="58.95" width="101.93" height="9.9" transform="translate(63.95 -26.59) rotate(45)"/>
    <rect class="cls-1" x="45.72" y="91.91" width="35.75" height="35.75" rx="13.96" ry="13.96"/>
    <rect class="cls-4" x="45.9" y="46.02" width="35.75" height="35.75" rx="7.04" ry="7.04"/>
    <rect class="cls-4" x="91.71" y="91.91" width="35.75" height="35.75" rx="7.04" ry="7.04"/>
    <rect class="cls-3" x="71.99" y="36.26" width="30" height="9.9" transform="translate(54.62 -49.44) rotate(45)"/>
    <rect class="cls-1" x="25.51" y="81.52" width="30" height="9.9" transform="translate(73 -3.32) rotate(45)"/>
  </g>
</svg>