<?xml version="1.0" encoding="UTF-8"?>
<svg id="Ebene_2" data-name="Ebene 2" xmlns="http://www.w3.org/2000/svg" viewBox="0 0 328.3 328.56">
  <defs>
    <style>
      .cls-1 {
        fill: #b5c9e9;
      }

      .cls-2 {
        fill: #8197cd;
      }

      .cls-3 {
        fill: #9bafdb;
      }

      .cls-4 {
        fill: #ffe39a;
      }

      .cls-5 {
        fill: #fdd263;
      }
    </style>
  </defs>
  <g id="Ebene_1-2" data-name="Ebene 1">
    <g>
      <rect class="cls-2" x="236.29" y=".05" width="92.01" height="92.01"/>
      <rect class="cls-3" x="236.17" y="118.26" width="92.01" height="91.42" rx="1.95" ry="1.95"/>
      <rect class="cls-5" x="1.24" y="236.11" width="92.01" height="92.01" rx="17.87" ry="17.87"/>
      <rect class="cls-3" x="118.14" y=".29" width="92.01" height="91.42" rx="1.95" ry="1.95"/>
      <path class="cls-1" d="M309.9,236.55h-54.89l-44.85-44.85v-55.13c0-10.01-8.12-18.13-18.13-18.13h-55.13l-44.33-44.33c0-.08.01-.15.01-.22V18.13c0-10.01-8.12-18.13-18.13-18.13H18.69C8.67,0,.56,8.12.56,18.13v55.75c0,10.01,8.12,18.13,18.13,18.13h55.74l43.76,43.76c-.01.27-.04.53-.04.8v55.75c0,10.01,8.12,18.13,18.13,18.13h55.75c.27,0,.53-.03.8-.04l43.25,43.25c-.02.34-.05.68-.05,1.03v55.75c0,10.01,8.12,18.13,18.13,18.13h55.75c10.01,0,18.13-8.12,18.13-18.13v-55.75c0-10.01-8.12-18.13-18.13-18.13Z"/>
      <path class="cls-4" d="M173.74,236.55h-20.15c-5.09,0-9.93,1.07-14.32,2.99l-50.45-50.45c2.03-4.5,3.19-9.49,3.19-14.75v-20.15c0-19.84-16.09-35.93-35.93-35.93h-20.15c-19.84,0-35.93,16.09-35.93,35.93v20.15c0,19.84,16.09,35.93,35.93,35.93h20.15c5.25,0,10.22-1.15,14.71-3.17l50.25,50.25c-2.15,4.61-3.38,9.72-3.38,15.14v20.15c0,19.84,16.09,35.93,35.93,35.93h20.15c19.84,0,35.93-16.09,35.93-35.93v-20.15c0-19.84-16.09-35.93-35.93-35.93Z"/>
    </g>
  </g>
</svg>