<?xml version="1.0" encoding="utf-8"?>
<!-- Generator: Adobe Illustrator 24.2.3, SVG Export Plug-In . SVG Version: 6.00 Build 0)  -->
<svg version="1.1" xmlns="http://www.w3.org/2000/svg" xmlns:xlink="http://www.w3.org/1999/xlink" x="0px" y="0px"
	 viewBox="0 0 511.6 136.7" style="enable-background:new 0 0 511.6 136.7;" xml:space="preserve">
<style type="text/css">
	.st0{fill:#465166;}
	.st1{fill:#8094B3;}
	.st2{fill:#FFFFFF;}
	.st3{fill:#A3C4FF;}
	.st4{fill:#333333;}
	.st5{fill:#FFFFFF;stroke:#1D1D1B;stroke-miterlimit:10;}
	.st6{fill:#B1B1B1;stroke:#1D1D1B;stroke-miterlimit:10;}
	.st7{fill:#1D1D1B;}
	.st8{fill:none;stroke:#465166;stroke-width:0;stroke-miterlimit:10;}
	.st9{fill:#FF0000;}
	.st10{fill:#5E7091;}
	.st11{fill:#FFAD33;}
	.st12{fill:#FEE397;}
	.st13{fill:#236051;}
	.st14{fill:#72CD86;}
	.st15{fill:#584560;}
	.st16{fill:#C2A7CD;}
	.st17{fill:#C4C4C4;}
	.st18{fill:url(#SVGID_3_);}
	.st19{fill:none;stroke:#5E7091;stroke-width:3.0466;stroke-miterlimit:10;}
	.st20{fill:none;stroke:#ABC9FF;stroke-width:27.642;stroke-miterlimit:10;}
	.st21{fill:none;stroke:#5E7091;stroke-width:4.0384;stroke-miterlimit:10;}
	.st22{fill:none;stroke:#5E7091;stroke-width:9.4228;stroke-miterlimit:10;}
	.st23{fill:none;stroke:#ABC9FF;stroke-width:4.2806;stroke-miterlimit:10;}
	.st24{fill:none;stroke:#5E7091;stroke-width:4.2806;stroke-miterlimit:10;}
	.st25{fill:#ABC9FF;}
	.st26{fill:#ADB4C7;}
	.st27{fill:none;stroke:#5E7091;stroke-width:2.6452;stroke-miterlimit:10;}
	.st28{fill:none;stroke:#ABC9FF;stroke-width:24.0005;stroke-miterlimit:10;}
	.st29{fill:none;stroke:#5E7091;stroke-width:3.5063;stroke-miterlimit:10;}
	.st30{fill:none;stroke:#5E7091;stroke-width:8.1815;stroke-miterlimit:10;}
	.st31{fill:none;stroke:#ABC9FF;stroke-width:3.7167;stroke-miterlimit:10;}
	.st32{fill:none;stroke:#5E7091;stroke-width:3.7167;stroke-miterlimit:10;}
	.st33{fill:none;}
	.st34{fill-rule:evenodd;clip-rule:evenodd;}
	.st35{fill:none;stroke:#000000;stroke-width:0.7785;stroke-miterlimit:3.8637;}
	.st36{stroke:#000000;stroke-width:9.340157e-02;stroke-miterlimit:3.8637;}
	.st37{fill:#7486A8;}
	.st38{fill:#FFFFFF;stroke:#465166;stroke-width:0.8912;stroke-miterlimit:10;}
	.st39{fill:#662D91;}
	.st40{fill:#FF4F05;}
	.st41{fill:#1B1464;}
	.st42{fill:#FFA3F0;}
	.st43{fill:#6C25CF;}
	.st44{fill:#FFFFFF;stroke:#465166;stroke-width:0.7896;stroke-miterlimit:10;}
	.st45{fill:#333333;stroke:#8094B3;stroke-width:0.4499;stroke-miterlimit:10;}
	.st46{clip-path:url(#SVGID_7_);}
	.st47{clip-path:url(#SVGID_11_);}
	.st48{fill:#EDECED;}
	.st49{fill:none;stroke:#000000;stroke-width:1.2826;stroke-miterlimit:3.8637;}
	.st50{stroke:#000000;stroke-width:0.1539;stroke-miterlimit:3.8637;}
	.st51{fill:#085DA9;}
	.st52{fill:#E1081A;}
	.st53{clip-path:url(#SVGID_17_);fill:#1D1D1B;}
	.st54{clip-path:url(#SVGID_17_);fill:#FFCC00;}
	.st55{fill:#0032BA;}
	.st56{fill:#E30613;}
	.st57{fill:#354A70;}
	.st58{fill:#667A9E;}
	.st59{opacity:0.6;}
	.st60{fill:#90A7C9;}
	.st61{fill:none;stroke:#000000;stroke-width:1.0436;stroke-miterlimit:3.8637;}
	.st62{stroke:#000000;stroke-width:0.1252;stroke-miterlimit:3.8637;}
	.st63{clip-path:url(#SVGID_19_);fill:#1D1D1B;}
	.st64{clip-path:url(#SVGID_19_);fill:#FFCC00;}
	.st65{fill:#4F59CA;}
	.st66{fill:#7B82EA;}
	.st67{fill:#4C53BB;}
	.st68{opacity:0.2;enable-background:new    ;}
	.st69{fill:none;stroke:#C24DFF;stroke-miterlimit:10;}
	.st70{fill:none;stroke:#C24DFF;stroke-width:1.2664;stroke-miterlimit:10;}
	.st71{fill:none;stroke:#C24DFF;stroke-width:1.1508;stroke-miterlimit:10;}
	.st72{fill:none;stroke:#C24DFF;stroke-width:1.1514;stroke-miterlimit:10;}
	.st73{fill:none;stroke:#C24DFF;stroke-width:4;stroke-miterlimit:10;}
	.st74{fill:#C24DFF;}
	.st75{fill:url(#SVGID_20_);}
	.st76{fill:#00A5D9;}
	.st77{fill:#035C8D;}
	.st78{fill:#F8D200;}
	.st79{clip-path:url(#SVGID_22_);fill:#1D1D1B;}
	.st80{clip-path:url(#SVGID_22_);fill:#FFCC00;}
	.st81{clip-path:url(#SVGID_24_);}
	.st82{fill-rule:evenodd;clip-rule:evenodd;fill:#8094B3;}
	.st83{fill-rule:evenodd;clip-rule:evenodd;fill:#D8DCE5;}
	.st84{fill-rule:evenodd;clip-rule:evenodd;fill:#EDEFF2;}
	.st85{fill:none;stroke:#FFFFFF;stroke-width:0.8661;stroke-linejoin:round;stroke-miterlimit:10;}
	.st86{fill:none;stroke:#FFFFFF;stroke-width:2.5984;stroke-linejoin:round;stroke-miterlimit:10;}
	.st87{fill-rule:evenodd;clip-rule:evenodd;fill:none;}
	.st88{fill-rule:evenodd;clip-rule:evenodd;fill:#FEE397;}
	.st89{fill-rule:evenodd;clip-rule:evenodd;fill:#FFAD33;}
	.st90{fill-rule:evenodd;clip-rule:evenodd;fill:#C2A7CD;}
	.st91{fill:url(#SVGID_29_);}
	.st92{fill:#2E3F5E;}
	.st93{fill:none;stroke:#000000;stroke-width:0.3905;stroke-miterlimit:3.8637;}
	.st94{stroke:#000000;stroke-width:4.684884e-02;stroke-miterlimit:3.8637;}
	.st95{clip-path:url(#SVGID_33_);fill:#1D1D1B;}
	.st96{clip-path:url(#SVGID_33_);fill:#FFCC00;}
	.st97{fill:url(#SVGID_34_);}
	.st98{clip-path:url(#SVGID_38_);fill:#1D1D1B;}
	.st99{clip-path:url(#SVGID_38_);fill:#FFCC00;}
	.st100{fill:#FBB03B;}
	.st101{fill:#F7931E;}
	.st102{fill:none;stroke:#C24DFF;stroke-width:1.1078;stroke-miterlimit:10;}
	.st103{fill:url(#SVGID_39_);}
	.st104{clip-path:url(#SVGID_43_);fill:#1D1D1B;}
	.st105{clip-path:url(#SVGID_43_);fill:#FFCC00;}
	.st106{fill:url(#SVGID_44_);}
	.st107{clip-path:url(#SVGID_48_);fill:#1D1D1B;}
	.st108{clip-path:url(#SVGID_48_);fill:#FFCC00;}
	.st109{fill:#F15A24;}
	.st110{fill:#839DCC;}
	.st111{fill:#9EB3D7;}
	.st112{fill:none;stroke:#FFFFFF;stroke-width:4;stroke-miterlimit:10;}
	.st113{fill:#8CC63F;}
	.st114{fill:#231F20;}
</style>
<g id="Layer_1">
	<g>
		<g>
			<g>
				<path class="st77" d="M448.1,62.1c2.7-9.2,5.4-18.1,8-27.1c1.1-3.8,1.2-3.8,5.1-3.8c5.2,0,5.6,0.5,4,5.4
					c-3.8,12.1-7.7,24.2-11.5,36.4c-1.2,3.7-5.7,5.4-9.1,3.5c-0.9-0.5-1.3-1.4-1.6-2.3c-4.2-13.2-8.4-26.3-12.5-39.5
					c-0.7-2.4,0.1-3.4,2.5-3.5c6-0.2,6-0.3,7.6,5.5c2.4,8.1,4.7,16.2,7.1,24.2C447.7,61.3,447.9,61.6,448.1,62.1z"/>
				<path class="st77" d="M377.3,57c0.1-4.6-0.3-10.3,0.2-15.9c0.5-6,4.4-9.7,10.4-9.8c4.5-0.1,9-0.1,13.5,0c2.9,0,3.6,0.8,3.6,3.7
					c0.1,5.3-0.1,5.6-5.5,5.6c-2.5,0-5,0-7.5,0c-3.7,0-5,1.3-5,5c0,9,0,18,0,27c0,3.8-0.5,4.4-4.3,4.4c-5.2,0-5.4-0.2-5.4-5.4
					C377.3,67.1,377.3,62.6,377.3,57z"/>
				<path class="st77" d="M426.5,62.2c1-3.4,1.9-6.5,2.8-9.7c0.3-0.9,0.5-1.8,1.6-1.8c1.2-0.1,1.4,0.9,1.7,1.8c3.1,9,3.1,9,0.2,18.1
					c-0.4,1.3-0.9,2.7-1.3,4c-0.5,1.6-1.6,2.3-3.1,2.4c-0.1,0-0.3,0-0.4,0c-5.5,0.3-5.8,0.1-7.5-5.2c-3.8-11.9-7.6-23.9-11.4-35.8
					c-0.2-0.6-0.4-1.2-0.5-1.8c-0.3-1.7,0.5-2.7,2.2-2.9c0.1,0,0.3,0,0.4,0c6-0.3,6-0.3,7.7,5.4c2.4,8.1,4.7,16.2,7.1,24.2
					C426,61.3,426.2,61.6,426.5,62.2z"/>
				<path class="st77" d="M366.5,77c-3.7,0.9-5.8-1-7.8-4c-3.2-4.9-6.8-9.6-10.2-14.3c-2.6-3.7-2.6-6,0-9.6
					c3.7-5.1,7.4-10.2,11-15.4c1.2-1.7,2.7-2.5,4.7-2.5c1.6,0,3.2,0,4.8,0.2c1.7,0.2,2.3,1.3,1.5,2.9c-0.4,0.7-0.9,1.4-1.4,2.1
					c-3.8,5.3-7.6,10.6-11.5,15.8c-0.9,1.2-0.9,2,0,3.2c4.3,5.8,8.6,11.6,12.8,17.4c0.7,1,1.7,2,1,3.3c-0.7,1.2-2,1-3.1,1
					C367.8,77,367.1,77,366.5,77z"/>
				<path class="st77" d="M343.9,54.3c0,6.3,0,12.6,0,18.9c0,3.1-0.7,3.8-3.9,3.8c-5.7,0-5.8-0.1-5.8-5.8c0-12,0-24,0-35.9
					c0-3.3,0.6-3.9,3.9-4c5.4-0.2,5.8,0.2,5.8,5.6C343.9,42.7,343.9,48.5,343.9,54.3z"/>
				<path class="st77" d="M396.2,50.7c0.1,0,0.1,0,0.2,0c5.9-0.2,5.7,0.5,5.6,6.1c0,1.6-0.8,2.6-2.4,2.7c-2.3,0.1-4.6,0.1-6.9,0
					c-1.5-0.1-2.3-1-2.4-2.5C390,50.6,390.2,50.6,396.2,50.7z"/>
			</g>
		</g>
		<g>
			<polygon class="st78" points="95.3,86.9 97.5,86.9 97.5,115.3 92.5,115.3 92.5,86.9 95.3,86.9 			"/>
			<polygon class="st56" points="95.3,58.3 97.5,58.3 97.5,86.9 92.5,86.9 92.5,58.3 95.3,58.3 			"/>
			<polygon class="st7" points="97.5,30 97.5,58.4 95.3,58.4 92.5,58.4 92.5,30 97.5,30 			"/>
			<path class="st7" d="M79.5,39.9c1.5,2.3,2.6,2.3,4.3,2.3c-1.4-1.1-2.4-2.5-2.8-3.2l-2.7-4.3c-0.3-1.3-0.9-2.5-2-3.5
				c0.3-0.1,0.6-0.3,0.8-0.4c-1.7,0-3.5-0.9-4.4-0.9c-0.6,0-1,0.4-1,0.8c0,0.5,0.6,1.1,1.6,1.1c0.2,0,0.5,0,0.9-0.1
				c0.6,0.8,1,1.5,1,2.5c0,1.9-2.2,3.3-4.5,3.3c-0.1,0-0.2,0-0.4,0c-0.2-0.5-0.9-1.2-0.9-2.1c0-1.5,1-2.7,1-4.2
				c0-0.9-0.4-1.5-0.6-1.7c0.3-0.3,0.6-0.6,0.6-0.8c-0.2,0.1-0.4,0.1-0.6,0.1c-1.1,0-2-0.3-2.8-0.3c-0.5,0-0.6,0.2-0.6,0.3
				c0,0.1,0,0.1,0,0.1c-0.2-0.1-0.4-0.1-0.6-0.2c-0.3,0-0.5-0.1-0.8-0.1c-1,0-1.4,0.4-1.4,0.8c0,0.3,0.2,0.9,0.5,1.3
				c0.4-0.2,0.9-0.3,1.1-0.3c0.6,0,1,0.5,1.3,1.2c-0.4,0-0.4,0.1-0.8,0.1c-1,0-1.7-0.4-1.8-0.4c0,0,0,0,0,0c0,0.1,0.3,0.5,0.9,0.7
				c0.7,0.3,1.9,0.4,2.1,0.4c0,0-0.2,0.4-0.4,0.5c0,0-0.1,0-0.1,0c-0.8-0.2-1-0.2-2-0.6c0,0,0,0,0,0c0,0.4,1,1.3,1.9,1.6
				c-0.8,1-1.7,2-2.2,3.5c-0.1,0-0.2,0-0.4,0c-2.2,0-4.5-1.5-4.5-3.3c0-1,0.4-1.7,1-2.5c0.3,0.1,0.6,0.1,0.9,0.1
				c1,0,1.6-0.5,1.6-1.1c0-0.5-0.4-0.8-1-0.8c-0.9,0-2.7,0.9-4.4,0.9c0.2,0.1,0.5,0.3,0.8,0.4c-1,0.9-1.7,2.1-2,3.5L53.4,39
				c-0.4,0.7-1.4,2.1-2.8,3.2c1.7,0,2.9,0,4.3-2.3l1.4-2.2c0.1,0.3,0.2,0.6,0.4,0.8L54,42.9c-0.5,0.7-1.4,2.1-2.8,3.2
				c1.7,0,2.9,0,4.3-2.3l2.3-3.7c0.2,0.2,0.4,0.4,0.6,0.5L55,45.9c-0.5,0.7-1.4,2.1-2.8,3.2c1.7,0,2.9,0,4.3-2.3l3.2-5.1
				c0.2,0.1,0.4,0.3,0.7,0.4l-3.9,6.3c-0.5,0.7-1.4,2.1-2.8,3.2c1.7,0,2.9,0,4.3-2.3l4-6.5c0.2,0.1,0.5,0.2,0.7,0.3l-4.6,7.3
				c-0.4,0.7-1.4,2.1-2.8,3.2c1.7,0,2.9,0,4.3-2.3l4.9-7.8c0,0,0.1,0,0.1,0c0.1,0.4,0.2,0.8,0.2,1.2c0,2.4-1.6,4.6-3.5,6.3
				c0.1,0.1,0.3,0.1,0.5,0.1c0.4,0,0.7,0,0.8-0.1c-0.4,1-1.4,2.3-1.9,3c-0.6-0.1-1.5-0.2-2.1-0.2c-0.6,0-0.7,0.4-0.7,0.7
				c0,0.6,0.3,1,0.6,1.3c0.1-0.3,0.4-0.7,1.5-0.7c0,0,0.1,0,0.1,0c-0.3,0.4-1.4,1.2-1.4,1.9c0,0.5,0.5,1.1,1.2,1.1
				c0-0.1,0-0.3,0-0.4c0-0.6,0.5-1.2,0.9-1.7c0,0.1,0,0.1,0,0.3c0,1.3,0.1,1.9,1,1.9c0.4,0,0.7-0.2,0.8-0.3
				c-0.5-0.5-0.6-0.9-0.6-1.6c0-0.2,0-0.4,0-0.6c0-0.2,0-0.4,0-0.6c0.3,0,0.4,0,0.7,0c0,0,1.2-0.1,1.5,0.5c0.3-0.3,0.8-0.7,0.8-1.2
				c0-0.3-0.1-0.7-0.8-0.7c-0.2,0-1,0.1-1.6,0.1c0.2-0.4,0.9-1.4,1.5-2.2c0.1,0.3,0.2,0.6,0.6,0.9c0-0.5,0.3-2.1,1.1-3
				c0.1,0.6,0.2,1.3,0.2,2.6c0,3.3-0.8,5.7-2.5,6.2c0.2,0.4,0.7,0.7,1.2,0.7c0.6,0,0.9-0.7,1.3-1.4c0.2,0.5,0.7,1.7,1.2,1.7
				s1-1.2,1.2-1.7c0.3,0.7,0.7,1.4,1.3,1.4c0.5,0,0.9-0.3,1.2-0.7c-1.7-0.5-2.5-2.9-2.5-6.2c0-1.4,0.1-2,0.2-2.6
				c0.8,0.9,1.1,2.5,1.1,3c0.3-0.3,0.5-0.6,0.6-0.9c0.6,0.8,1.4,1.9,1.5,2.2c-0.6,0-1.3-0.1-1.6-0.1c-0.6,0-0.8,0.3-0.8,0.7
				c0,0.5,0.5,0.9,0.8,1.2c0.3-0.6,1.5-0.5,1.5-0.5c0.2,0,0.4,0,0.7,0c0,0.2,0,0.4,0,0.6c0,0.3,0,0.5,0,0.6c0,0.7,0,1.1-0.6,1.6
				c0.1,0.1,0.4,0.3,0.8,0.3c0.8,0,1-0.6,1-1.9c0-0.2,0-0.1,0-0.3c0.4,0.5,0.9,1.1,0.9,1.7c0,0.1,0,0.2,0,0.4c0.7,0,1.2-0.7,1.2-1.1
				c0-0.7-1.1-1.6-1.4-1.9c0.1,0,0.1,0,0.1,0c1.2,0,1.4,0.4,1.5,0.7c0.3-0.3,0.6-0.7,0.6-1.3c0-0.3-0.1-0.7-0.7-0.7
				c-0.6,0-1.5,0.1-2.1,0.2c-0.5-0.7-1.4-2-1.9-3c0.2,0,0.4,0.1,0.8,0.1c0.2,0,0.4,0,0.5-0.1c-1.9-1.7-3.5-3.8-3.5-6.3
				c0-0.4,0.1-0.8,0.2-1.2c0,0,0.1,0,0.1,0l4.9,7.8c1.5,2.3,2.6,2.3,4.3,2.3c-1.4-1.1-2.4-2.5-2.8-3.2l-4.6-7.3
				c0.2-0.1,0.5-0.2,0.7-0.3l4,6.5c1.5,2.3,2.6,2.3,4.3,2.3c-1.4-1.1-2.4-2.5-2.8-3.2L74,42.1c0.2-0.1,0.4-0.3,0.7-0.4l3.2,5.1
				c1.5,2.3,2.6,2.3,4.3,2.3c-1.4-1.1-2.4-2.5-2.8-3.2l-3.3-5.3c0.2-0.2,0.4-0.4,0.6-0.5l2.3,3.7c1.5,2.3,2.6,2.3,4.3,2.3
				c-1.4-1.1-2.4-2.5-2.8-3.2l-2.7-4.3c0.1-0.3,0.3-0.5,0.4-0.8L79.5,39.9L79.5,39.9z M57.7,34.9c0-1.6,1.2-2.9,1.6-3.3
				c0.1,0,0.2,0,0.3,0.1c-0.4,0.5-1.2,1.4-1.2,2.6c0,2.4,2.5,4.4,5.4,4.4c0,0.2,0,0.4,0,0.6c0,0.4,0,0.7,0.1,1
				C60.6,40.4,57.7,37.7,57.7,34.9L57.7,34.9z M62.1,54.4L62.1,54.4L62.1,54.4c0.9,0.1,1.4,0,1.7-0.1c0.2,0,0.3,0,0.4,0
				c0.2,0,0.4,0,0.4,0.3c0,0.2-0.2,0.5-0.4,0.7c-0.3-0.3-0.8-0.4-1.5-0.4c-0.3,0-0.7,0.1-1,0.1l0,0l0,0l0,0.1c0,0.2,0.1,0.4,0.1,0.7
				l0,0.3l0,0.4c0,0.8,0.1,1.2,0.4,1.5c-0.1,0-0.2,0-0.3,0c-0.5,0-0.6-0.2-0.6-1.6c0-0.3,0-0.5,0-0.7l0-0.3l-0.1,0
				c-0.7,0.5-1.4,1.5-1.5,2.2c-0.2-0.1-0.4-0.5-0.4-0.7c0-0.4,0.6-1,1.3-1.7l0.4-0.4l0.1-0.1l-0.1,0c-0.1,0-0.4-0.1-0.7-0.1
				c-0.8,0-1.3,0.1-1.6,0.5c-0.1-0.2-0.2-0.5-0.2-0.7c0-0.1,0-0.2,0.1-0.3c0.1-0.1,0.2-0.1,0.3-0.1h0c0.9,0,1.9,0.2,2.3,0.2l0,0l0,0
				c0.1-0.1,1.7-2.3,2.1-3.4c0.1,0,0.2-0.1,0.4-0.1c0.3,0,0.4,0.2,0.5,0.5C63,52.7,62.4,53.7,62.1,54.4L62.1,54.4z M70.9,51
				c0.2,0,0.3,0,0.4,0.1c0.4,1.2,2.1,3.3,2.1,3.4l0,0l0,0c0.4-0.1,1.4-0.2,2.3-0.2h0c0.1,0,0.2,0,0.3,0.1c0.1,0.1,0.1,0.2,0.1,0.3
				c0,0.2-0.1,0.6-0.2,0.7c-0.3-0.3-0.8-0.5-1.6-0.5c-0.2,0-0.5,0.1-0.7,0.1l-0.1,0l-0.1,0l0.4,0.4c0.7,0.7,1.3,1.3,1.3,1.7
				c0,0.2-0.2,0.6-0.4,0.7c0-0.7-0.8-1.7-1.5-2.2l-0.1,0l0,0.3c0,0.2,0,0.4,0,0.7c0,1.4-0.1,1.6-0.6,1.6c-0.1,0-0.2,0-0.3,0
				c0.3-0.3,0.4-0.8,0.4-1.5l0-0.4l0-0.3c0-0.3,0-0.6,0.1-0.7l0-0.1l-0.1,0c-0.2,0-0.6-0.1-1-0.1c-0.7,0-1.1,0.1-1.5,0.4
				c-0.2-0.2-0.4-0.5-0.4-0.7c0-0.3,0.2-0.3,0.4-0.3c0.1,0,0.2,0,0.4,0c0.3,0,0.7,0.1,1.6,0.1h0.1l0-0.1c-0.2-0.7-0.9-1.6-1.9-2.9
				C70.5,51.2,70.6,51,70.9,51L70.9,51z M67.2,32c-0.1-0.4-0.3-0.9-0.6-1.2c-0.2-0.3-0.7-0.6-1.2-0.6c-0.3,0-0.7,0.1-1,0.2
				c-0.1-0.2-0.3-0.6-0.3-0.8c0-0.2,0.3-0.4,1-0.4c1.5,0,2.3,0.7,2.3,1.8C67.4,31.4,67.3,31.7,67.2,32L67.2,32z M67.8,30.6
				c-0.1-0.3-0.2-0.6-0.4-0.8c0-0.3,0.1-0.6,0.6-0.3c-0.3,0.3-0.1,0.7-0.1,0.7c0,0,0.5-0.2,0.4-0.6C69.2,29.7,68.6,30.7,67.8,30.6
				L67.8,30.6z M70.7,40.4c0-0.3,0.1-0.6,0.1-1c0-0.2,0-0.4,0-0.6c2.8,0,5.3-2.1,5.3-4.4c0-1.2-0.8-2.1-1.2-2.6c0.1,0,0.2,0,0.3-0.1
				c0.4,0.4,1.6,1.6,1.6,3.3C76.7,37.7,73.9,40.3,70.7,40.4L70.7,40.4z"/>
			<path class="st7" d="M114.2,32.6c0,0.4-0.1,0.8-0.2,1.1c-0.1,0.3-0.2,0.6-0.4,0.8c-0.2,0.2-0.4,0.4-0.6,0.5
				c-0.2,0.1-0.5,0.2-0.7,0.3v0c0.3,0.1,0.6,0.2,0.9,0.3c0.3,0.2,0.5,0.4,0.7,0.6c0.2,0.2,0.4,0.5,0.5,0.8c0.1,0.3,0.2,0.7,0.2,1.1
				c0,0.5-0.1,0.9-0.2,1.3c-0.2,0.4-0.4,0.7-0.7,1c-0.3,0.3-0.8,0.5-1.3,0.7c-0.5,0.2-1.1,0.2-1.8,0.2H108V29.7h2.3
				c0.7,0,1.3,0.1,1.8,0.2c0.5,0.1,0.9,0.3,1.2,0.6c0.3,0.3,0.5,0.6,0.7,0.9C114.1,31.8,114.2,32.2,114.2,32.6L114.2,32.6z
				 M112.7,32.7c0-0.5-0.2-1-0.6-1.3c-0.4-0.3-1-0.5-1.8-0.5h-0.8v4h0.8c0.8,0,1.4-0.2,1.8-0.6C112.5,33.9,112.7,33.4,112.7,32.7
				L112.7,32.7z M112.9,38.1c0-0.6-0.2-1.1-0.6-1.5c-0.4-0.4-1-0.6-1.8-0.6h-1v4.1h0.9c0.9,0,1.5-0.2,1.9-0.5
				C112.7,39.3,112.9,38.7,112.9,38.1L112.9,38.1z M122,41.3h-1.3v-0.9h0c0,0.1-0.1,0.2-0.2,0.3c-0.1,0.1-0.3,0.3-0.4,0.4
				c-0.2,0.1-0.4,0.2-0.6,0.3c-0.2,0.1-0.5,0.1-0.8,0.1c-0.4,0-0.7-0.1-1-0.2c-0.3-0.1-0.5-0.3-0.7-0.5c-0.2-0.2-0.4-0.5-0.5-0.9
				c-0.1-0.4-0.2-0.8-0.2-1.4v-5.3h1.4v5.2c0,0.7,0.1,1.2,0.3,1.4c0.2,0.3,0.6,0.4,1,0.4c0.4,0,0.7-0.1,1-0.3
				c0.3-0.2,0.5-0.4,0.6-0.6v-6.2h1.4V41.3L122,41.3z M128.5,41.3v-5.2c0-0.7-0.1-1.2-0.3-1.5c-0.2-0.3-0.6-0.4-1.1-0.4
				c-0.4,0-0.7,0.1-1,0.3c-0.3,0.2-0.5,0.4-0.6,0.6v6.3h-1.4v-8.1h1.3v0.9h0c0-0.1,0.1-0.2,0.2-0.3c0.1-0.1,0.3-0.3,0.4-0.4
				c0.2-0.1,0.4-0.2,0.6-0.3c0.2-0.1,0.5-0.1,0.8-0.1c0.4,0,0.7,0.1,1,0.2c0.3,0.1,0.5,0.3,0.7,0.5c0.2,0.2,0.4,0.5,0.5,0.9
				c0.1,0.4,0.2,0.8,0.2,1.4v5.3H128.5L128.5,41.3z M131.6,37.4c0-0.8,0.1-1.5,0.3-2.1c0.2-0.6,0.5-1,0.8-1.3
				c0.3-0.3,0.7-0.6,1.2-0.7c0.4-0.1,0.9-0.2,1.3-0.2c0.3,0,0.5,0,0.7,0.1c0.2,0,0.3,0.1,0.5,0.1v-3.9l1.4-0.2v12.1h-1.3v-0.9h0
				c0,0.1-0.1,0.2-0.2,0.3c-0.1,0.1-0.2,0.2-0.4,0.4c-0.2,0.1-0.4,0.2-0.6,0.3c-0.2,0.1-0.5,0.1-0.8,0.1c-0.4,0-0.7-0.1-1.1-0.2
				c-0.3-0.2-0.6-0.4-0.9-0.7c-0.3-0.3-0.5-0.8-0.6-1.3C131.6,38.8,131.6,38.1,131.6,37.4L131.6,37.4z M134.8,40.3
				c0.2,0,0.4,0,0.6-0.1s0.3-0.1,0.4-0.2c0.1-0.1,0.2-0.2,0.3-0.3c0.1-0.1,0.1-0.2,0.2-0.2v-5c-0.1-0.1-0.3-0.1-0.4-0.2
				c-0.2-0.1-0.4-0.1-0.6-0.1c-0.3,0-0.6,0.1-0.9,0.2c-0.3,0.1-0.5,0.3-0.7,0.5c-0.2,0.2-0.4,0.6-0.5,1s-0.2,0.9-0.2,1.5
				c0,0.6,0,1,0.1,1.4c0.1,0.4,0.2,0.7,0.4,0.9c0.2,0.2,0.4,0.4,0.6,0.5C134.3,40.3,134.5,40.3,134.8,40.3L134.8,40.3z M145,36
				c0,0.3,0,0.7,0,0.9c0,0.3,0,0.5-0.1,0.7h-4.1c0,1,0.3,1.7,0.6,2.1c0.4,0.5,0.9,0.7,1.6,0.7c0.2,0,0.5,0,0.6-0.1
				c0.2-0.1,0.4-0.1,0.5-0.2c0.1-0.1,0.3-0.2,0.4-0.2c0.1-0.1,0.2-0.1,0.2-0.2l0.5,1c-0.1,0.1-0.1,0.1-0.3,0.2
				c-0.1,0.1-0.3,0.2-0.5,0.3c-0.2,0.1-0.4,0.2-0.7,0.3c-0.3,0.1-0.6,0.1-1,0.1c-0.5,0-1-0.1-1.4-0.3c-0.4-0.2-0.8-0.4-1-0.8
				c-0.3-0.4-0.5-0.8-0.7-1.4c-0.2-0.5-0.2-1.2-0.2-2c0-0.7,0.1-1.3,0.2-1.9c0.2-0.5,0.4-1,0.7-1.3c0.3-0.3,0.6-0.6,1-0.8
				c0.4-0.2,0.8-0.2,1.2-0.2c0.8,0,1.4,0.2,1.8,0.7C144.8,34.2,145,35,145,36L145,36z M142.4,34.1c-0.5,0-0.9,0.2-1.2,0.6
				c-0.3,0.4-0.5,1-0.5,1.8h3c0-0.1,0-0.1,0-0.2c0-0.1,0-0.2,0-0.3c0-0.6-0.1-1-0.3-1.3C143.2,34.3,142.8,34.1,142.4,34.1
				L142.4,34.1z M150.3,34.9c-0.1-0.1-0.3-0.2-0.5-0.4c-0.2-0.2-0.5-0.3-0.9-0.3c-0.4,0-0.6,0.1-0.8,0.3c-0.2,0.2-0.3,0.4-0.3,0.6
				c0,0.3,0.1,0.6,0.3,0.8c0.2,0.2,0.4,0.4,0.8,0.6l0.5,0.3c0.6,0.3,1,0.7,1.3,1.1c0.3,0.4,0.5,0.9,0.5,1.5c0,0.6-0.2,1.2-0.7,1.6
				c-0.4,0.4-1.1,0.7-1.9,0.7c-0.3,0-0.6,0-0.9-0.1c-0.2-0.1-0.5-0.1-0.7-0.2c-0.2-0.1-0.3-0.2-0.5-0.3c-0.1-0.1-0.2-0.2-0.3-0.3
				l0.7-1.1c0.1,0.1,0.1,0.1,0.2,0.2c0.1,0.1,0.2,0.2,0.3,0.3c0.1,0.1,0.3,0.2,0.5,0.2c0.2,0.1,0.4,0.1,0.6,0.1
				c0.4,0,0.7-0.1,0.9-0.3s0.3-0.4,0.3-0.7c0-0.2,0-0.4-0.1-0.5c-0.1-0.1-0.1-0.3-0.2-0.4c-0.1-0.1-0.2-0.2-0.4-0.3
				c-0.1-0.1-0.3-0.2-0.5-0.3l-0.5-0.3c-0.5-0.3-0.9-0.7-1.2-1c-0.3-0.4-0.4-0.8-0.4-1.4c0-0.3,0.1-0.6,0.2-0.8
				c0.1-0.3,0.3-0.5,0.5-0.7c0.2-0.2,0.5-0.3,0.8-0.4c0.3-0.1,0.6-0.2,0.9-0.2c0.3,0,0.6,0,0.8,0.1c0.2,0.1,0.4,0.1,0.6,0.2
				c0.2,0.1,0.3,0.2,0.4,0.3c0.1,0.1,0.2,0.2,0.3,0.2L150.3,34.9L150.3,34.9z M157,41.3v-5.2c0-0.7-0.1-1.1-0.3-1.4
				c-0.2-0.3-0.5-0.4-0.9-0.4c-0.2,0-0.4,0-0.6,0.1c-0.2,0.1-0.3,0.1-0.5,0.2c-0.1,0.1-0.3,0.2-0.4,0.3c-0.1,0.1-0.2,0.2-0.3,0.3
				v6.3h-1.4v-8.1h1.3v0.9h0c0.1-0.1,0.1-0.2,0.3-0.3c0.1-0.1,0.3-0.3,0.4-0.4c0.2-0.1,0.4-0.2,0.6-0.3c0.2-0.1,0.5-0.1,0.8-0.1
				c0.9,0,1.6,0.4,2,1.1c0.1-0.1,0.2-0.2,0.3-0.4c0.1-0.1,0.3-0.2,0.5-0.4c0.2-0.1,0.4-0.2,0.6-0.3c0.2-0.1,0.5-0.1,0.7-0.1
				c1.6,0,2.5,1,2.5,2.9v5.5h-1.4v-5.2c0-0.7-0.1-1.1-0.4-1.4c-0.2-0.3-0.6-0.4-1-0.4c-0.4,0-0.7,0.1-1,0.3
				c-0.3,0.2-0.5,0.4-0.6,0.5c0,0.1,0,0.3,0.1,0.4c0,0.1,0,0.3,0,0.4v5.5H157L157,41.3z M166.1,41.3h-1.4v-8.1h1.4V41.3L166.1,41.3z
				 M165.4,31.2c-0.3,0-0.5-0.1-0.7-0.3c-0.2-0.2-0.3-0.4-0.3-0.7c0-0.3,0.1-0.5,0.3-0.7c0.2-0.2,0.4-0.3,0.7-0.3
				c0.3,0,0.5,0.1,0.7,0.3c0.2,0.2,0.3,0.4,0.3,0.7c0,0.3-0.1,0.5-0.3,0.7C165.9,31.2,165.6,31.2,165.4,31.2L165.4,31.2z
				 M172.6,41.3v-5.2c0-0.7-0.1-1.2-0.3-1.5c-0.2-0.3-0.6-0.4-1.1-0.4c-0.4,0-0.7,0.1-1,0.3c-0.3,0.2-0.5,0.4-0.6,0.6v6.3h-1.4v-8.1
				h1.3v0.9h0c0-0.1,0.1-0.2,0.2-0.3c0.1-0.1,0.3-0.3,0.4-0.4c0.2-0.1,0.4-0.2,0.6-0.3c0.2-0.1,0.5-0.1,0.8-0.1c0.4,0,0.7,0.1,1,0.2
				c0.3,0.1,0.5,0.3,0.7,0.5c0.2,0.2,0.4,0.5,0.5,0.9c0.1,0.4,0.2,0.8,0.2,1.4v5.3H172.6L172.6,41.3z M177.4,41.3H176v-8.1h1.4V41.3
				L177.4,41.3z M176.7,31.2c-0.3,0-0.5-0.1-0.7-0.3c-0.2-0.2-0.3-0.4-0.3-0.7c0-0.3,0.1-0.5,0.3-0.7c0.2-0.2,0.4-0.3,0.7-0.3
				c0.3,0,0.5,0.1,0.7,0.3c0.2,0.2,0.3,0.4,0.3,0.7c0,0.3-0.1,0.5-0.3,0.7C177.2,31.2,177,31.2,176.7,31.2L176.7,31.2z M183,34.9
				c-0.1-0.1-0.3-0.2-0.5-0.4c-0.2-0.2-0.5-0.3-0.9-0.3c-0.4,0-0.6,0.1-0.8,0.3c-0.2,0.2-0.3,0.4-0.3,0.6c0,0.3,0.1,0.6,0.3,0.8
				c0.2,0.2,0.4,0.4,0.8,0.6l0.5,0.3c0.6,0.3,1,0.7,1.3,1.1c0.3,0.4,0.5,0.9,0.5,1.5c0,0.6-0.2,1.2-0.7,1.6
				c-0.4,0.4-1.1,0.7-1.9,0.7c-0.3,0-0.6,0-0.9-0.1c-0.2-0.1-0.5-0.1-0.7-0.2c-0.2-0.1-0.3-0.2-0.5-0.3c-0.1-0.1-0.2-0.2-0.3-0.3
				l0.7-1.1c0.1,0.1,0.1,0.1,0.2,0.2c0.1,0.1,0.2,0.2,0.3,0.3c0.1,0.1,0.3,0.2,0.5,0.2c0.2,0.1,0.4,0.1,0.6,0.1
				c0.4,0,0.7-0.1,0.9-0.3c0.2-0.2,0.3-0.4,0.3-0.7c0-0.2,0-0.4-0.1-0.5c-0.1-0.1-0.1-0.3-0.2-0.4c-0.1-0.1-0.2-0.2-0.4-0.3
				c-0.1-0.1-0.3-0.2-0.5-0.3l-0.5-0.3c-0.5-0.3-0.9-0.7-1.2-1c-0.3-0.4-0.4-0.8-0.4-1.4c0-0.3,0.1-0.6,0.2-0.8
				c0.1-0.3,0.3-0.5,0.5-0.7c0.2-0.2,0.5-0.3,0.8-0.4c0.3-0.1,0.6-0.2,0.9-0.2c0.3,0,0.6,0,0.8,0.1c0.2,0.1,0.4,0.1,0.6,0.2
				c0.2,0.1,0.3,0.2,0.4,0.3c0.1,0.1,0.2,0.2,0.3,0.2L183,34.9L183,34.9z M188.9,34.3h-1.8v4.5c0,0.6,0.1,1,0.2,1.2
				c0.1,0.2,0.4,0.3,0.7,0.3c0.2,0,0.4,0,0.5-0.1s0.3-0.1,0.3-0.2l0.2,1.1c-0.1,0-0.2,0.1-0.4,0.2c-0.2,0.1-0.5,0.1-0.9,0.1
				c-0.7,0-1.2-0.2-1.6-0.6c-0.3-0.4-0.5-1-0.5-1.9v-4.7h-1v-0.9l1-0.2l0.2-2.3h1.2v2.3h1.9L188.9,34.3L188.9,34.3z M195.5,36
				c0,0.3,0,0.7,0,0.9c0,0.3,0,0.5-0.1,0.7h-4.1c0,1,0.3,1.7,0.6,2.1c0.4,0.5,0.9,0.7,1.6,0.7c0.2,0,0.5,0,0.6-0.1
				c0.2-0.1,0.4-0.1,0.5-0.2c0.1-0.1,0.3-0.2,0.4-0.2c0.1-0.1,0.2-0.1,0.2-0.2l0.5,1c-0.1,0.1-0.1,0.1-0.3,0.2
				c-0.1,0.1-0.3,0.2-0.5,0.3c-0.2,0.1-0.4,0.2-0.7,0.3c-0.3,0.1-0.6,0.1-1,0.1c-0.5,0-1-0.1-1.4-0.3c-0.4-0.2-0.8-0.4-1-0.8
				c-0.3-0.4-0.5-0.8-0.7-1.4c-0.2-0.5-0.2-1.2-0.2-2c0-0.7,0.1-1.3,0.2-1.9c0.2-0.5,0.4-1,0.7-1.3c0.3-0.3,0.6-0.6,1-0.8
				c0.4-0.2,0.8-0.2,1.2-0.2c0.8,0,1.4,0.2,1.8,0.7C195.3,34.2,195.5,35,195.5,36L195.5,36z M193,34.1c-0.5,0-0.9,0.2-1.2,0.6
				c-0.3,0.4-0.5,1-0.5,1.8h3c0-0.1,0-0.1,0-0.2c0-0.1,0-0.2,0-0.3c0-0.6-0.1-1-0.3-1.3C193.7,34.3,193.4,34.1,193,34.1L193,34.1z
				 M200.9,34.4c0,0-0.1-0.1-0.2-0.1c-0.1,0-0.3-0.1-0.5-0.1c-0.4,0-0.8,0.1-1,0.3c-0.2,0.2-0.4,0.5-0.5,0.8v6h-1.4v-8.1h1.3v1.1h0
				c0.1-0.2,0.1-0.3,0.2-0.5c0.1-0.2,0.2-0.3,0.3-0.4c0.1-0.1,0.3-0.2,0.5-0.3c0.2-0.1,0.4-0.1,0.7-0.1c0.2,0,0.3,0,0.5,0.1
				c0.1,0,0.2,0.1,0.3,0.1L200.9,34.4L200.9,34.4z M203.7,41.3h-1.4v-8.1h1.4V41.3L203.7,41.3z M203,31.2c-0.3,0-0.5-0.1-0.7-0.3
				c-0.2-0.2-0.3-0.4-0.3-0.7c0-0.3,0.1-0.5,0.3-0.7c0.2-0.2,0.4-0.3,0.7-0.3c0.3,0,0.5,0.1,0.7,0.3c0.2,0.2,0.3,0.4,0.3,0.7
				c0,0.3-0.1,0.5-0.3,0.7C203.5,31.2,203.2,31.2,203,31.2L203,31.2z M211.4,41.3h-1.3v-0.9h0c0,0.1-0.1,0.2-0.2,0.3
				c-0.1,0.1-0.3,0.3-0.4,0.4c-0.2,0.1-0.4,0.2-0.6,0.3c-0.2,0.1-0.5,0.1-0.8,0.1c-0.4,0-0.7-0.1-1-0.2c-0.3-0.1-0.5-0.3-0.7-0.5
				c-0.2-0.2-0.4-0.5-0.5-0.9c-0.1-0.4-0.2-0.8-0.2-1.4v-5.3h1.4v5.2c0,0.7,0.1,1.2,0.3,1.4c0.2,0.3,0.6,0.4,1,0.4
				c0.4,0,0.7-0.1,1-0.3c0.3-0.2,0.5-0.4,0.6-0.6v-6.2h1.4V41.3L211.4,41.3z M217.8,41.3v-5.2c0-0.7-0.1-1.1-0.3-1.4
				c-0.2-0.3-0.5-0.4-0.9-0.4c-0.2,0-0.4,0-0.6,0.1c-0.2,0.1-0.3,0.1-0.5,0.2c-0.1,0.1-0.3,0.2-0.4,0.3c-0.1,0.1-0.2,0.2-0.3,0.3
				v6.3h-1.4v-8.1h1.3v0.9h0c0.1-0.1,0.1-0.2,0.3-0.3c0.1-0.1,0.3-0.3,0.4-0.4c0.2-0.1,0.4-0.2,0.6-0.3c0.2-0.1,0.5-0.1,0.8-0.1
				c0.9,0,1.6,0.4,2,1.1c0.1-0.1,0.2-0.2,0.3-0.4c0.1-0.1,0.3-0.2,0.5-0.4c0.2-0.1,0.4-0.2,0.6-0.3c0.2-0.1,0.5-0.1,0.7-0.1
				c1.6,0,2.5,1,2.5,2.9v5.5h-1.4v-5.2c0-0.7-0.1-1.1-0.4-1.4c-0.2-0.3-0.6-0.4-1-0.4c-0.4,0-0.7,0.1-1,0.3
				c-0.3,0.2-0.5,0.4-0.6,0.5c0,0.1,0,0.3,0.1,0.4c0,0.1,0,0.3,0,0.4v5.5H217.8L217.8,41.3z M111.2,51.4h-1.7v7h-1.4v-7h-1v-0.9
				l1-0.2v-1.6c0-0.4,0.1-0.8,0.2-1.1c0.1-0.3,0.3-0.6,0.5-0.8c0.2-0.2,0.4-0.3,0.7-0.4c0.3-0.1,0.6-0.1,0.9-0.1
				c0.3,0,0.5,0,0.7,0.1s0.3,0.1,0.4,0.2l-0.3,1.1c-0.1,0-0.2-0.1-0.3-0.1c-0.1-0.1-0.3-0.1-0.5-0.1c-0.3,0-0.6,0.1-0.7,0.3
				c-0.2,0.2-0.3,0.6-0.3,1.1v1.5h1.8L111.2,51.4L111.2,51.4z M118.2,58.4H117v-0.9h0c0,0.1-0.1,0.2-0.2,0.3
				c-0.1,0.1-0.3,0.3-0.4,0.4c-0.2,0.1-0.4,0.2-0.6,0.3c-0.2,0.1-0.5,0.1-0.8,0.1c-0.4,0-0.7-0.1-1-0.2c-0.3-0.1-0.5-0.3-0.7-0.5
				c-0.2-0.2-0.4-0.5-0.5-0.9c-0.1-0.4-0.2-0.8-0.2-1.4v-5.3h1.4v5.2c0,0.7,0.1,1.2,0.3,1.4c0.2,0.3,0.6,0.4,1,0.4
				c0.4,0,0.7-0.1,1-0.3c0.3-0.2,0.5-0.4,0.6-0.6v-6.2h1.4V58.4L118.2,58.4z M114.8,47.9c0,0.3-0.1,0.5-0.2,0.6
				c-0.2,0.2-0.3,0.2-0.6,0.2c-0.2,0-0.4-0.1-0.6-0.2c-0.2-0.2-0.2-0.4-0.2-0.6c0-0.3,0.1-0.5,0.2-0.6c0.2-0.2,0.3-0.2,0.6-0.2
				c0.2,0,0.4,0.1,0.6,0.2C114.8,47.5,114.8,47.7,114.8,47.9L114.8,47.9z M117.5,47.9c0,0.3-0.1,0.5-0.2,0.6
				c-0.2,0.2-0.3,0.2-0.6,0.2c-0.2,0-0.4-0.1-0.6-0.2c-0.2-0.2-0.2-0.4-0.2-0.6c0-0.3,0.1-0.5,0.2-0.6c0.2-0.2,0.3-0.2,0.6-0.2
				c0.2,0,0.4,0.1,0.6,0.2C117.4,47.5,117.5,47.7,117.5,47.9L117.5,47.9z M123.9,51.5c0,0-0.1-0.1-0.2-0.1c-0.1,0-0.3-0.1-0.5-0.1
				c-0.4,0-0.8,0.1-1,0.3c-0.2,0.2-0.4,0.5-0.5,0.8v6h-1.4v-8.1h1.3v1.1h0c0.1-0.2,0.1-0.3,0.2-0.5c0.1-0.2,0.2-0.3,0.3-0.4
				c0.1-0.1,0.3-0.2,0.5-0.3c0.2-0.1,0.4-0.1,0.7-0.1c0.2,0,0.3,0,0.5,0.1c0.1,0,0.2,0.1,0.3,0.1L123.9,51.5L123.9,51.5z
				 M140.1,46.7l-2.8,11.7H136l-1.8-7.3c-0.1-0.5-0.2-1-0.3-1.4c-0.1-0.4-0.1-0.8-0.2-1h0c0,0.3,0,0.6-0.1,1
				c-0.1,0.4-0.2,0.9-0.3,1.4l-1.8,7.4h-1.3l-2.8-11.7h1.6l1.5,7.1c0.1,0.5,0.2,1.1,0.3,1.5c0.1,0.5,0.1,0.8,0.1,1.1h0
				c0-0.3,0.1-0.6,0.2-1.1c0.1-0.5,0.2-1,0.3-1.5l1.7-7.1h1.4l1.7,7.1c0.1,0.5,0.2,1.1,0.3,1.5c0.1,0.5,0.2,0.8,0.2,1.1h0
				c0-0.3,0.1-0.6,0.2-1.1c0.1-0.5,0.2-1,0.3-1.6l1.5-7H140.1L140.1,46.7z M140.6,54.3c0-0.7,0.1-1.4,0.3-1.9c0.2-0.5,0.4-1,0.7-1.3
				c0.3-0.3,0.6-0.6,1-0.8c0.4-0.2,0.8-0.2,1.2-0.2c0.5,0,0.9,0.1,1.3,0.2c0.4,0.2,0.7,0.4,1,0.8c0.3,0.3,0.5,0.8,0.7,1.3
				c0.2,0.5,0.2,1.2,0.2,1.9c0,0.8-0.1,1.4-0.3,1.9c-0.2,0.5-0.4,1-0.7,1.3c-0.3,0.3-0.6,0.6-1,0.8c-0.4,0.2-0.8,0.2-1.3,0.2
				c-0.5,0-0.9-0.1-1.3-0.2c-0.4-0.2-0.7-0.4-1-0.8c-0.3-0.3-0.5-0.8-0.7-1.3C140.7,55.8,140.6,55.1,140.6,54.3L140.6,54.3z
				 M145.6,54.3c0-1.1-0.2-1.9-0.5-2.4c-0.3-0.5-0.8-0.7-1.3-0.7c-0.6,0-1,0.2-1.3,0.7c-0.3,0.5-0.5,1.3-0.5,2.4s0.2,1.9,0.5,2.3
				c0.3,0.5,0.8,0.7,1.3,0.7s1-0.2,1.3-0.7C145.4,56.2,145.6,55.4,145.6,54.3L145.6,54.3z M153.2,58.4v-5.2c0-0.7-0.1-1.2-0.3-1.5
				c-0.2-0.3-0.6-0.4-1.1-0.4c-0.4,0-0.7,0.1-1,0.3c-0.3,0.2-0.5,0.4-0.6,0.6v6.3h-1.4v-12l1.4-0.2v4.8h0c0-0.1,0.1-0.2,0.2-0.3
				c0.1-0.1,0.2-0.2,0.4-0.3c0.2-0.1,0.4-0.2,0.6-0.3c0.2-0.1,0.5-0.1,0.9-0.1c0.7,0,1.3,0.2,1.7,0.7c0.4,0.5,0.6,1.2,0.6,2.3v5.3
				H153.2L153.2,58.4z M161,58.4v-5.2c0-0.7-0.1-1.2-0.3-1.5c-0.2-0.3-0.6-0.4-1.1-0.4c-0.4,0-0.7,0.1-1,0.3
				c-0.3,0.2-0.5,0.4-0.6,0.6v6.3h-1.4v-8.1h1.3v0.9h0c0-0.1,0.1-0.2,0.2-0.3c0.1-0.1,0.3-0.3,0.4-0.4c0.2-0.1,0.4-0.2,0.6-0.3
				c0.2-0.1,0.5-0.1,0.8-0.1c0.4,0,0.7,0.1,1,0.2c0.3,0.1,0.5,0.3,0.7,0.5c0.2,0.2,0.4,0.5,0.5,0.9c0.1,0.4,0.2,0.8,0.2,1.4v5.3H161
				L161,58.4z M169.7,53c0,0.3,0,0.7,0,0.9c0,0.3,0,0.5-0.1,0.7h-4.1c0,1,0.3,1.7,0.6,2.1c0.4,0.5,0.9,0.7,1.6,0.7
				c0.2,0,0.5,0,0.6-0.1c0.2-0.1,0.4-0.1,0.5-0.2c0.1-0.1,0.3-0.2,0.4-0.2c0.1-0.1,0.2-0.1,0.2-0.2l0.5,1c-0.1,0.1-0.1,0.1-0.3,0.2
				c-0.1,0.1-0.3,0.2-0.5,0.3c-0.2,0.1-0.4,0.2-0.7,0.3c-0.3,0.1-0.6,0.1-1,0.1c-0.5,0-1-0.1-1.4-0.3c-0.4-0.2-0.8-0.4-1-0.8
				c-0.3-0.4-0.5-0.8-0.7-1.4c-0.2-0.5-0.2-1.2-0.2-2c0-0.7,0.1-1.3,0.2-1.9c0.2-0.5,0.4-1,0.7-1.3c0.3-0.3,0.6-0.6,1-0.8
				c0.4-0.2,0.8-0.2,1.2-0.2c0.8,0,1.4,0.2,1.8,0.7C169.4,51.3,169.7,52,169.7,53L169.7,53z M167.1,51.2c-0.5,0-0.9,0.2-1.2,0.6
				c-0.3,0.4-0.5,1-0.5,1.8h3c0-0.1,0-0.1,0-0.2c0-0.1,0-0.2,0-0.3c0-0.6-0.1-1-0.3-1.3C167.8,51.4,167.5,51.2,167.1,51.2
				L167.1,51.2z M175.9,58.4v-5.2c0-0.7-0.1-1.2-0.3-1.5c-0.2-0.3-0.6-0.4-1.1-0.4c-0.4,0-0.7,0.1-1,0.3c-0.3,0.2-0.5,0.4-0.6,0.6
				v6.3h-1.4v-8.1h1.3v0.9h0c0-0.1,0.1-0.2,0.2-0.3c0.1-0.1,0.3-0.3,0.4-0.4c0.2-0.1,0.4-0.2,0.6-0.3c0.2-0.1,0.5-0.1,0.8-0.1
				c0.4,0,0.7,0.1,1,0.2c0.3,0.1,0.5,0.3,0.7,0.5c0.2,0.2,0.4,0.5,0.5,0.9c0.1,0.4,0.2,0.8,0.2,1.4v5.3H175.9L175.9,58.4z
				 M179.1,57.4c0-0.3,0.1-0.5,0.3-0.7c0.2-0.2,0.4-0.2,0.6-0.2c0.3,0,0.6,0.1,0.8,0.4c0.2,0.3,0.3,0.7,0.3,1.3c0,0.4-0.1,0.7-0.2,1
				c-0.1,0.3-0.3,0.5-0.5,0.7c-0.2,0.2-0.4,0.4-0.6,0.5c-0.2,0.1-0.5,0.2-0.7,0.3l-0.3-0.6c0.3-0.2,0.6-0.4,0.9-0.7
				c0.2-0.3,0.3-0.6,0.4-1.1h-0.1c-0.3,0-0.5-0.1-0.7-0.2C179.2,58,179.1,57.8,179.1,57.4L179.1,57.4z M190.9,48.5
				c0,0-0.1-0.1-0.2-0.2c-0.1-0.1-0.2-0.2-0.4-0.2c-0.2-0.1-0.4-0.1-0.6-0.2c-0.2-0.1-0.5-0.1-0.7-0.1c-0.5,0-0.9,0.1-1.2,0.4
				c-0.3,0.3-0.4,0.6-0.4,0.9c0,0.2,0,0.4,0.1,0.6c0.1,0.2,0.2,0.4,0.3,0.6c0.1,0.2,0.3,0.4,0.5,0.6c0.2,0.2,0.4,0.4,0.7,0.6
				l0.9,0.8c0.3,0.2,0.5,0.5,0.8,0.7c0.2,0.2,0.5,0.5,0.6,0.8c0.2,0.3,0.3,0.6,0.4,0.9c0.1,0.3,0.2,0.7,0.2,1c0,0.9-0.3,1.6-0.8,2.2
				c-0.6,0.5-1.4,0.8-2.4,0.8c-0.4,0-0.8,0-1.1-0.1c-0.3-0.1-0.6-0.2-0.8-0.3c-0.2-0.1-0.4-0.2-0.6-0.3c-0.2-0.1-0.3-0.2-0.4-0.3
				l0.6-1.3c0.1,0.1,0.2,0.2,0.3,0.3c0.1,0.1,0.3,0.2,0.5,0.3c0.2,0.1,0.4,0.2,0.7,0.3c0.2,0.1,0.5,0.1,0.8,0.1c0.6,0,1-0.1,1.3-0.4
				c0.3-0.3,0.5-0.6,0.5-1c0-0.2,0-0.5-0.1-0.7c-0.1-0.2-0.2-0.4-0.3-0.6c-0.1-0.2-0.3-0.4-0.4-0.6c-0.2-0.2-0.4-0.4-0.6-0.6
				l-0.9-0.8c-0.3-0.3-0.6-0.5-0.9-0.8c-0.2-0.2-0.5-0.5-0.6-0.8c-0.2-0.3-0.3-0.6-0.4-0.9c-0.1-0.3-0.1-0.7-0.1-1.1
				c0-0.4,0.1-0.7,0.2-1c0.1-0.3,0.3-0.6,0.6-0.8c0.3-0.2,0.6-0.4,0.9-0.6c0.4-0.1,0.8-0.2,1.2-0.2c0.4,0,0.7,0,1,0.1
				c0.3,0.1,0.5,0.2,0.8,0.3c0.2,0.1,0.4,0.2,0.5,0.3c0.1,0.1,0.2,0.2,0.3,0.2L190.9,48.5L190.9,48.5z M196.8,51.4H195v4.5
				c0,0.6,0.1,1,0.2,1.2c0.1,0.2,0.4,0.3,0.7,0.3c0.2,0,0.4,0,0.5-0.1s0.3-0.1,0.3-0.2l0.2,1.1c-0.1,0-0.2,0.1-0.4,0.2
				c-0.2,0.1-0.5,0.1-0.9,0.1c-0.7,0-1.2-0.2-1.6-0.6c-0.3-0.4-0.5-1-0.5-1.9v-4.7h-1v-0.9l1-0.2l0.2-2.3h1.2v2.3h1.9L196.8,51.4
				L196.8,51.4z M197.9,56.3c0-0.5,0.1-0.9,0.3-1.2c0.2-0.3,0.4-0.6,0.7-0.8c0.3-0.2,0.7-0.3,1.1-0.4c0.4-0.1,0.8-0.1,1.3-0.1h0.4
				v-0.8c0-0.7-0.1-1.2-0.4-1.4c-0.2-0.3-0.6-0.4-1-0.4c-0.4,0-0.7,0.1-1,0.3c-0.3,0.2-0.5,0.3-0.6,0.5l-0.6-0.9
				c0.1-0.1,0.2-0.2,0.3-0.3c0.1-0.1,0.3-0.2,0.5-0.3c0.2-0.1,0.4-0.2,0.7-0.3c0.3-0.1,0.6-0.1,0.9-0.1c0.8,0,1.5,0.2,1.9,0.7
				c0.4,0.5,0.6,1.2,0.6,2.2v3.7c0,0.3,0,0.7,0,1c0,0.3,0,0.6,0.1,0.7h-1.3l-0.1-0.9h0c0,0.1-0.1,0.2-0.2,0.3
				c-0.1,0.1-0.2,0.2-0.3,0.4c-0.1,0.1-0.3,0.2-0.5,0.3c-0.2,0.1-0.4,0.1-0.7,0.1c-0.3,0-0.6-0.1-0.9-0.2c-0.3-0.1-0.5-0.3-0.7-0.5
				c-0.2-0.2-0.3-0.4-0.5-0.7C198,57,197.9,56.7,197.9,56.3L197.9,56.3z M200.4,57.4c0.2,0,0.4,0,0.5-0.1s0.3-0.1,0.4-0.2
				c0.1-0.1,0.2-0.2,0.3-0.3c0.1-0.1,0.1-0.2,0.2-0.2v-1.8l-0.4,0c-0.7,0-1.2,0.1-1.5,0.3c-0.3,0.2-0.5,0.5-0.5,1
				c0,0.4,0.1,0.7,0.3,0.9C199.8,57.3,200,57.4,200.4,57.4L200.4,57.4z M204.8,54.5c0-0.8,0.1-1.5,0.3-2.1c0.2-0.6,0.5-1,0.8-1.3
				c0.3-0.3,0.7-0.6,1.2-0.7c0.4-0.1,0.9-0.2,1.3-0.2c0.3,0,0.5,0,0.7,0.1c0.2,0,0.3,0.1,0.5,0.1v-3.9l1.4-0.2v12.1h-1.3v-0.9h0
				c0,0.1-0.1,0.2-0.2,0.3c-0.1,0.1-0.2,0.2-0.4,0.4c-0.2,0.1-0.4,0.2-0.6,0.3c-0.2,0.1-0.5,0.1-0.8,0.1c-0.4,0-0.7-0.1-1.1-0.2
				c-0.3-0.2-0.6-0.4-0.9-0.7c-0.3-0.3-0.5-0.8-0.6-1.3C204.8,55.8,204.8,55.2,204.8,54.5L204.8,54.5z M208,57.4
				c0.2,0,0.4,0,0.6-0.1c0.2-0.1,0.3-0.1,0.4-0.2c0.1-0.1,0.2-0.2,0.3-0.3c0.1-0.1,0.1-0.2,0.2-0.2v-5c-0.1-0.1-0.3-0.1-0.4-0.2
				c-0.2-0.1-0.4-0.1-0.6-0.1c-0.3,0-0.6,0.1-0.9,0.2c-0.3,0.1-0.5,0.3-0.7,0.5c-0.2,0.2-0.4,0.6-0.5,1c-0.1,0.4-0.2,0.9-0.2,1.5
				c0,0.6,0,1,0.1,1.4c0.1,0.4,0.2,0.7,0.4,0.9c0.2,0.2,0.4,0.4,0.6,0.5C207.5,57.3,207.7,57.4,208,57.4L208,57.4z M216.4,51.4h-1.8
				v4.5c0,0.6,0.1,1,0.2,1.2c0.1,0.2,0.4,0.3,0.7,0.3c0.2,0,0.4,0,0.5-0.1c0.1-0.1,0.3-0.1,0.3-0.2l0.2,1.1c-0.1,0-0.2,0.1-0.4,0.2
				c-0.2,0.1-0.5,0.1-0.9,0.1c-0.7,0-1.2-0.2-1.6-0.6c-0.3-0.4-0.5-1-0.5-1.9v-4.7h-1v-0.9l1-0.2l0.2-2.3h1.2v2.3h1.9L216.4,51.4
				L216.4,51.4z M223.1,53c0,0.3,0,0.7,0,0.9c0,0.3,0,0.5-0.1,0.7h-4.1c0,1,0.3,1.7,0.6,2.1c0.4,0.5,0.9,0.7,1.6,0.7
				c0.2,0,0.5,0,0.6-0.1s0.4-0.1,0.5-0.2c0.1-0.1,0.3-0.2,0.4-0.2c0.1-0.1,0.2-0.1,0.2-0.2l0.5,1c-0.1,0.1-0.1,0.1-0.3,0.2
				c-0.1,0.1-0.3,0.2-0.5,0.3c-0.2,0.1-0.4,0.2-0.7,0.3c-0.3,0.1-0.6,0.1-1,0.1c-0.5,0-1-0.1-1.4-0.3c-0.4-0.2-0.8-0.4-1-0.8
				s-0.5-0.8-0.7-1.4c-0.2-0.5-0.2-1.2-0.2-2c0-0.7,0.1-1.3,0.2-1.9c0.2-0.5,0.4-1,0.7-1.3c0.3-0.3,0.6-0.6,1-0.8
				c0.4-0.2,0.8-0.2,1.2-0.2c0.8,0,1.4,0.2,1.8,0.7C222.9,51.3,223.1,52,223.1,53L223.1,53z M220.5,51.2c-0.5,0-0.9,0.2-1.2,0.6
				c-0.3,0.4-0.5,1-0.5,1.8h3c0-0.1,0-0.1,0-0.2c0-0.1,0-0.2,0-0.3c0-0.6-0.1-1-0.3-1.3C221.3,51.4,220.9,51.2,220.5,51.2
				L220.5,51.2z M229.4,58.4v-5.2c0-0.7-0.1-1.2-0.3-1.5c-0.2-0.3-0.6-0.4-1.1-0.4c-0.4,0-0.7,0.1-1,0.3c-0.3,0.2-0.5,0.4-0.6,0.6
				v6.3h-1.4v-8.1h1.3v0.9h0c0-0.1,0.1-0.2,0.2-0.3c0.1-0.1,0.3-0.3,0.4-0.4c0.2-0.1,0.4-0.2,0.6-0.3c0.2-0.1,0.5-0.1,0.8-0.1
				c0.4,0,0.7,0.1,1,0.2c0.3,0.1,0.5,0.3,0.7,0.5c0.2,0.2,0.4,0.5,0.5,0.9c0.1,0.4,0.2,0.8,0.2,1.4v5.3H229.4L229.4,58.4z
				 M236.2,51.4h-1.8v4.5c0,0.6,0.1,1,0.2,1.2c0.1,0.2,0.4,0.3,0.7,0.3c0.2,0,0.4,0,0.5-0.1c0.1-0.1,0.3-0.1,0.3-0.2l0.2,1.1
				c-0.1,0-0.2,0.1-0.4,0.2c-0.2,0.1-0.5,0.1-0.9,0.1c-0.7,0-1.2-0.2-1.6-0.6c-0.3-0.4-0.5-1-0.5-1.9v-4.7h-1v-0.9l1-0.2l0.2-2.3
				h1.2v2.3h1.9L236.2,51.4L236.2,51.4z M247.2,50.3l-2.5,8.1h-1.2l-0.8-2.8c-0.1-0.4-0.2-0.8-0.3-1.1c-0.1-0.3-0.1-0.7-0.2-1h0
				c0,0.3-0.1,0.7-0.2,1c-0.1,0.4-0.2,0.7-0.4,1.1l-0.9,2.8h-1.2l-2.6-8.1h1.5l1.2,4.6c0.1,0.4,0.2,0.8,0.3,1.2
				c0.1,0.4,0.1,0.7,0.1,1h0c0-0.3,0.1-0.7,0.2-1c0.1-0.4,0.2-0.7,0.4-1.2l0.9-2.7l-0.6-2h1.4l1.2,4.5c0.1,0.5,0.2,0.9,0.3,1.3
				c0.1,0.4,0.2,0.8,0.2,1h0c0-0.3,0.1-0.6,0.2-1.1c0.1-0.4,0.2-0.8,0.3-1.3l1.2-4.5H247.2L247.2,50.3z M249.8,58.4h-1.4v-8.1h1.4
				V58.4L249.8,58.4z M249.1,48.3c-0.3,0-0.5-0.1-0.7-0.3c-0.2-0.2-0.3-0.4-0.3-0.7c0-0.3,0.1-0.5,0.3-0.7c0.2-0.2,0.4-0.3,0.7-0.3
				c0.3,0,0.5,0.1,0.7,0.3c0.2,0.2,0.3,0.4,0.3,0.7c0,0.3-0.1,0.5-0.3,0.7C249.6,48.2,249.4,48.3,249.1,48.3L249.1,48.3z
				 M256.4,51.9c0,0-0.1-0.1-0.2-0.2c-0.1-0.1-0.2-0.1-0.3-0.2c-0.1-0.1-0.2-0.1-0.4-0.2c-0.2-0.1-0.3-0.1-0.5-0.1
				c-0.3,0-0.6,0.1-0.8,0.2c-0.3,0.1-0.5,0.3-0.7,0.5c-0.2,0.2-0.3,0.5-0.4,0.9c-0.1,0.4-0.2,0.8-0.2,1.4c0,0.6,0,1.1,0.1,1.5
				c0.1,0.4,0.2,0.7,0.4,1c0.2,0.2,0.4,0.4,0.6,0.5c0.2,0.1,0.5,0.2,0.8,0.2c0.4,0,0.7-0.1,1-0.2c0.2-0.1,0.4-0.3,0.5-0.4l0.6,0.9
				c-0.1,0.1-0.1,0.1-0.2,0.2c-0.1,0.1-0.2,0.2-0.4,0.3c-0.2,0.1-0.4,0.2-0.6,0.2c-0.2,0.1-0.5,0.1-0.8,0.1c-0.5,0-0.9-0.1-1.3-0.2
				c-0.4-0.1-0.7-0.4-1-0.7c-0.3-0.3-0.5-0.8-0.7-1.3c-0.2-0.5-0.3-1.2-0.3-2c0-0.8,0.1-1.4,0.3-2c0.2-0.5,0.5-1,0.8-1.3
				c0.3-0.3,0.7-0.6,1.1-0.7c0.4-0.2,0.8-0.2,1.2-0.2c0.3,0,0.6,0,0.8,0.1c0.2,0.1,0.4,0.1,0.6,0.2c0.2,0.1,0.3,0.2,0.4,0.3
				c0.1,0.1,0.2,0.2,0.3,0.2L256.4,51.9L256.4,51.9z M261.5,54l2.8,4.4h-1.6l-2.3-3.8h-0.6v3.8h-1.4v-12l1.4-0.2v7.2h0.6l2.2-3.2
				h1.6L261.5,54L261.5,54z M266.9,56.5c0,0.3,0,0.6,0.1,0.7c0.1,0.1,0.3,0.2,0.5,0.2c0.1,0,0.2,0,0.3,0c0.1,0,0.1,0,0.2-0.1l0.1,1
				c-0.1,0-0.2,0.1-0.4,0.1c-0.2,0.1-0.4,0.1-0.7,0.1c-0.5,0-0.8-0.1-1.1-0.4c-0.3-0.3-0.4-0.8-0.4-1.5V46.4l1.4-0.2V56.5
				L266.9,56.5z M275.1,58.4h-1.3v-0.9h0c0,0.1-0.1,0.2-0.2,0.3c-0.1,0.1-0.3,0.3-0.4,0.4c-0.2,0.1-0.4,0.2-0.6,0.3
				c-0.2,0.1-0.5,0.1-0.8,0.1c-0.4,0-0.7-0.1-1-0.2c-0.3-0.1-0.5-0.3-0.7-0.5c-0.2-0.2-0.4-0.5-0.5-0.9c-0.1-0.4-0.2-0.8-0.2-1.4
				v-5.3h1.4v5.2c0,0.7,0.1,1.2,0.3,1.4c0.2,0.3,0.6,0.4,1,0.4c0.4,0,0.7-0.1,1-0.3c0.3-0.2,0.5-0.4,0.6-0.6v-6.2h1.4V58.4
				L275.1,58.4z M281.6,58.4v-5.2c0-0.7-0.1-1.2-0.3-1.5c-0.2-0.3-0.6-0.4-1.1-0.4c-0.4,0-0.7,0.1-1,0.3c-0.3,0.2-0.5,0.4-0.6,0.6
				v6.3h-1.4v-8.1h1.3v0.9h0c0-0.1,0.1-0.2,0.2-0.3c0.1-0.1,0.3-0.3,0.4-0.4c0.2-0.1,0.4-0.2,0.6-0.3c0.2-0.1,0.5-0.1,0.8-0.1
				c0.4,0,0.7,0.1,1,0.2c0.3,0.1,0.5,0.3,0.7,0.5c0.2,0.2,0.4,0.5,0.5,0.9c0.1,0.4,0.2,0.8,0.2,1.4v5.3H281.6L281.6,58.4z
				 M290.8,51.4h-1c0.3,0.4,0.4,0.9,0.4,1.5c0,0.4-0.1,0.8-0.2,1.2c-0.1,0.3-0.3,0.6-0.6,0.9c-0.3,0.2-0.6,0.4-0.9,0.5
				c-0.3,0.1-0.7,0.2-1.1,0.2c-0.1,0-0.2,0-0.2,0c-0.1,0-0.1,0-0.2,0c-0.1,0.1-0.3,0.1-0.4,0.3c-0.1,0.1-0.2,0.3-0.2,0.5
				c0,0.2,0.1,0.3,0.2,0.4c0.1,0.1,0.3,0.2,0.6,0.2h1c0.4,0,0.7,0,1.1,0.1c0.3,0.1,0.6,0.2,0.9,0.4c0.2,0.2,0.4,0.4,0.6,0.7
				c0.1,0.3,0.2,0.6,0.2,1c0,0.4-0.1,0.8-0.3,1.2c-0.2,0.4-0.4,0.7-0.8,0.9c-0.3,0.3-0.8,0.5-1.2,0.6c-0.5,0.1-1,0.2-1.6,0.2
				c-0.9,0-1.5-0.2-2-0.6c-0.5-0.4-0.7-0.9-0.7-1.6c0-0.3,0.1-0.6,0.2-0.8c0.1-0.2,0.2-0.4,0.4-0.6c0.1-0.2,0.3-0.3,0.4-0.4
				c0.2-0.1,0.3-0.2,0.4-0.2v0c-0.3-0.3-0.5-0.6-0.5-1.1c0-0.2,0-0.4,0.1-0.6c0.1-0.2,0.2-0.3,0.3-0.4c0.1-0.1,0.2-0.2,0.3-0.2
				c0.1-0.1,0.2-0.1,0.2-0.1v0c-0.4-0.2-0.8-0.5-1-0.9c-0.3-0.4-0.4-0.9-0.4-1.6c0-0.5,0.1-0.8,0.2-1.2c0.1-0.3,0.3-0.6,0.6-0.9
				c0.2-0.2,0.5-0.4,0.9-0.5c0.3-0.1,0.7-0.2,1.1-0.2s0.7,0.1,1.1,0.2h2.5L290.8,51.4L290.8,51.4z M287.1,58.2c-0.2,0-0.4,0-0.6-0.1
				c-0.1,0.1-0.2,0.1-0.3,0.2c-0.1,0.1-0.2,0.2-0.3,0.3c-0.1,0.1-0.1,0.2-0.2,0.4c-0.1,0.2-0.1,0.3-0.1,0.5c0,0.9,0.5,1.3,1.4,1.3
				c0.8,0,1.4-0.2,1.8-0.5c0.4-0.3,0.6-0.7,0.6-1.1c0-0.4-0.1-0.7-0.4-0.8c-0.2-0.2-0.6-0.2-1-0.2H287.1L287.1,58.2z M288.9,52.8
				c0-0.6-0.1-1-0.4-1.3c-0.3-0.2-0.6-0.4-1-0.4c-0.4,0-0.7,0.1-1,0.4c-0.3,0.2-0.4,0.7-0.4,1.3s0.1,1,0.4,1.3
				c0.3,0.2,0.6,0.4,1,0.4c0.4,0,0.7-0.1,1-0.4C288.7,53.8,288.9,53.4,288.9,52.8L288.9,52.8z M113.4,75.5h-1.3v-0.9h0
				c0,0.1-0.1,0.2-0.2,0.3c-0.1,0.1-0.3,0.3-0.4,0.4c-0.2,0.1-0.4,0.2-0.6,0.3c-0.2,0.1-0.5,0.1-0.8,0.1c-0.4,0-0.7-0.1-1-0.2
				c-0.3-0.1-0.5-0.3-0.7-0.5c-0.2-0.2-0.4-0.5-0.5-0.9c-0.1-0.4-0.2-0.8-0.2-1.4v-5.3h1.4v5.2c0,0.7,0.1,1.2,0.3,1.4
				c0.2,0.3,0.6,0.4,1,0.4c0.4,0,0.7-0.1,1-0.3c0.3-0.2,0.5-0.4,0.6-0.6v-6.2h1.4V75.5L113.4,75.5z M120,75.5v-5.2
				c0-0.7-0.1-1.2-0.3-1.5c-0.2-0.3-0.6-0.4-1.1-0.4c-0.4,0-0.7,0.1-1,0.3c-0.3,0.2-0.5,0.4-0.6,0.6v6.3h-1.4v-8.1h1.3v0.9h0
				c0-0.1,0.1-0.2,0.2-0.3c0.1-0.1,0.3-0.3,0.4-0.4c0.2-0.1,0.4-0.2,0.6-0.3c0.2-0.1,0.5-0.1,0.8-0.1c0.4,0,0.7,0.1,1,0.2
				c0.3,0.1,0.5,0.3,0.7,0.5c0.2,0.2,0.4,0.5,0.5,0.9c0.1,0.4,0.2,0.8,0.2,1.4v5.3H120L120,75.5z M123,71.5c0-0.8,0.1-1.5,0.3-2.1
				s0.5-1,0.8-1.3c0.3-0.3,0.7-0.6,1.2-0.7c0.4-0.1,0.9-0.2,1.3-0.2c0.3,0,0.5,0,0.7,0.1c0.2,0,0.3,0.1,0.5,0.1v-3.9l1.4-0.2v12.1
				h-1.3v-0.9h0c0,0.1-0.1,0.2-0.2,0.3c-0.1,0.1-0.2,0.2-0.4,0.4c-0.2,0.1-0.4,0.2-0.6,0.3c-0.2,0.1-0.5,0.1-0.8,0.1
				c-0.4,0-0.7-0.1-1.1-0.2c-0.3-0.2-0.6-0.4-0.9-0.7c-0.3-0.3-0.5-0.8-0.6-1.3C123.1,72.9,123,72.3,123,71.5L123,71.5z M126.2,74.5
				c0.2,0,0.4,0,0.6-0.1c0.2-0.1,0.3-0.1,0.4-0.2c0.1-0.1,0.2-0.2,0.3-0.3c0.1-0.1,0.1-0.2,0.2-0.2v-5c-0.1-0.1-0.3-0.1-0.4-0.2
				c-0.2-0.1-0.4-0.1-0.6-0.1c-0.3,0-0.6,0.1-0.9,0.2c-0.3,0.1-0.5,0.3-0.7,0.5c-0.2,0.2-0.4,0.6-0.5,1c-0.1,0.4-0.2,0.9-0.2,1.5
				c0,0.6,0,1,0.1,1.4c0.1,0.4,0.2,0.7,0.4,0.9c0.2,0.2,0.4,0.4,0.6,0.5C125.8,74.4,126,74.5,126.2,74.5L126.2,74.5z M141.2,66.8
				c0,0.4-0.1,0.8-0.2,1.1c-0.1,0.3-0.2,0.6-0.4,0.8c-0.2,0.2-0.4,0.4-0.6,0.5c-0.2,0.1-0.5,0.2-0.7,0.3v0c0.3,0.1,0.6,0.2,0.9,0.3
				c0.3,0.2,0.5,0.4,0.7,0.6c0.2,0.2,0.4,0.5,0.5,0.8c0.1,0.3,0.2,0.7,0.2,1.1c0,0.5-0.1,0.9-0.2,1.3c-0.2,0.4-0.4,0.7-0.7,1
				c-0.3,0.3-0.8,0.5-1.3,0.7c-0.5,0.2-1.1,0.2-1.8,0.2h-2.4V63.8h2.3c0.7,0,1.3,0.1,1.8,0.2c0.5,0.1,0.9,0.3,1.2,0.6
				c0.3,0.3,0.5,0.6,0.7,0.9C141.2,65.9,141.2,66.3,141.2,66.8L141.2,66.8z M139.7,66.8c0-0.5-0.2-1-0.6-1.3c-0.4-0.3-1-0.5-1.8-0.5
				h-0.8v4h0.8c0.8,0,1.4-0.2,1.8-0.6C139.5,68,139.7,67.5,139.7,66.8L139.7,66.8z M140,72.2c0-0.6-0.2-1.1-0.6-1.5
				c-0.4-0.4-1-0.6-1.8-0.6h-1v4.1h0.9c0.9,0,1.5-0.2,1.9-0.5C139.8,73.4,140,72.9,140,72.2L140,72.2z M142.9,73.4
				c0-0.5,0.1-0.9,0.3-1.2c0.2-0.3,0.4-0.6,0.7-0.8c0.3-0.2,0.7-0.3,1.1-0.4c0.4-0.1,0.8-0.1,1.3-0.1h0.4v-0.8
				c0-0.7-0.1-1.2-0.4-1.4c-0.2-0.3-0.6-0.4-1-0.4c-0.4,0-0.7,0.1-1,0.3c-0.3,0.2-0.5,0.3-0.6,0.5l-0.6-0.9c0.1-0.1,0.2-0.2,0.3-0.3
				c0.1-0.1,0.3-0.2,0.5-0.3c0.2-0.1,0.4-0.2,0.7-0.3c0.3-0.1,0.6-0.1,0.9-0.1c0.8,0,1.5,0.2,1.9,0.7c0.4,0.5,0.6,1.2,0.6,2.2v3.7
				c0,0.3,0,0.7,0,1c0,0.3,0,0.6,0.1,0.7h-1.3l-0.1-0.9h0c0,0.1-0.1,0.2-0.2,0.3c-0.1,0.1-0.2,0.2-0.3,0.4c-0.1,0.1-0.3,0.2-0.5,0.3
				c-0.2,0.1-0.4,0.1-0.7,0.1c-0.3,0-0.6-0.1-0.9-0.2c-0.3-0.1-0.5-0.3-0.7-0.5c-0.2-0.2-0.3-0.4-0.5-0.7
				C142.9,74,142.9,73.7,142.9,73.4L142.9,73.4z M145.3,74.5c0.2,0,0.4,0,0.5-0.1c0.1-0.1,0.3-0.1,0.4-0.2c0.1-0.1,0.2-0.2,0.3-0.3
				c0.1-0.1,0.1-0.2,0.2-0.2v-1.8l-0.4,0c-0.7,0-1.2,0.1-1.5,0.3c-0.3,0.2-0.5,0.5-0.5,1c0,0.4,0.1,0.7,0.3,0.9
				C144.7,74.4,145,74.5,145.3,74.5L145.3,74.5z M155.8,75.5h-1.3v-0.9h0c0,0.1-0.1,0.2-0.2,0.3c-0.1,0.1-0.3,0.3-0.4,0.4
				c-0.2,0.1-0.4,0.2-0.6,0.3c-0.2,0.1-0.5,0.1-0.8,0.1c-0.4,0-0.7-0.1-1-0.2c-0.3-0.1-0.5-0.3-0.7-0.5c-0.2-0.2-0.4-0.5-0.5-0.9
				c-0.1-0.4-0.2-0.8-0.2-1.4v-5.3h1.4v5.2c0,0.7,0.1,1.2,0.3,1.4c0.2,0.3,0.6,0.4,1,0.4c0.4,0,0.7-0.1,1-0.3
				c0.3-0.2,0.5-0.4,0.6-0.6v-6.2h1.4V75.5L155.8,75.5z M167.3,67.4l-2.5,8.1h-1.2l-0.8-2.8c-0.1-0.4-0.2-0.8-0.3-1.1
				c-0.1-0.3-0.1-0.7-0.2-1h0c0,0.3-0.1,0.7-0.2,1c-0.1,0.4-0.2,0.7-0.4,1.1l-0.9,2.8h-1.2l-2.6-8.1h1.5l1.2,4.6
				c0.1,0.4,0.2,0.8,0.3,1.2c0.1,0.4,0.1,0.7,0.1,1h0c0-0.3,0.1-0.7,0.2-1c0.1-0.4,0.2-0.7,0.4-1.2l0.9-2.7l-0.6-2h1.4l1.2,4.5
				c0.1,0.5,0.2,0.9,0.3,1.3c0.1,0.4,0.2,0.8,0.2,1h0c0-0.3,0.1-0.6,0.2-1.1c0.1-0.4,0.2-0.8,0.3-1.3l1.2-4.5H167.3L167.3,67.4z
				 M173.6,70.1c0,0.3,0,0.7,0,0.9c0,0.3,0,0.5-0.1,0.7h-4.1c0,1,0.3,1.7,0.6,2.1c0.4,0.5,0.9,0.7,1.6,0.7c0.2,0,0.5,0,0.6-0.1
				c0.2-0.1,0.4-0.1,0.5-0.2c0.1-0.1,0.3-0.2,0.4-0.2c0.1-0.1,0.2-0.1,0.2-0.2l0.5,1c-0.1,0.1-0.1,0.1-0.3,0.2
				c-0.1,0.1-0.3,0.2-0.5,0.3c-0.2,0.1-0.4,0.2-0.7,0.3s-0.6,0.1-1,0.1c-0.5,0-1-0.1-1.4-0.3c-0.4-0.2-0.8-0.4-1-0.8
				c-0.3-0.4-0.5-0.8-0.7-1.4c-0.2-0.5-0.2-1.2-0.2-2c0-0.7,0.1-1.3,0.2-1.9c0.2-0.5,0.4-1,0.7-1.3c0.3-0.3,0.6-0.6,1-0.8
				c0.4-0.2,0.8-0.2,1.2-0.2c0.8,0,1.4,0.2,1.8,0.7S173.6,69.1,173.6,70.1L173.6,70.1z M171,68.3c-0.5,0-0.9,0.2-1.2,0.6
				c-0.3,0.4-0.5,1-0.5,1.8h3c0-0.1,0-0.1,0-0.2c0-0.1,0-0.2,0-0.3c0-0.6-0.1-1-0.3-1.3C171.8,68.4,171.5,68.3,171,68.3L171,68.3z
				 M179,69c-0.1-0.1-0.3-0.2-0.5-0.4c-0.2-0.2-0.5-0.3-0.9-0.3c-0.4,0-0.6,0.1-0.8,0.3c-0.2,0.2-0.3,0.4-0.3,0.6
				c0,0.3,0.1,0.6,0.3,0.8c0.2,0.2,0.4,0.4,0.8,0.6l0.5,0.3c0.6,0.3,1,0.7,1.3,1.1c0.3,0.4,0.5,0.9,0.5,1.5c0,0.6-0.2,1.2-0.7,1.6
				c-0.4,0.4-1.1,0.7-1.9,0.7c-0.3,0-0.6,0-0.9-0.1c-0.2-0.1-0.5-0.1-0.7-0.2c-0.2-0.1-0.3-0.2-0.5-0.3c-0.1-0.1-0.2-0.2-0.3-0.3
				l0.7-1.1c0.1,0.1,0.1,0.1,0.2,0.2c0.1,0.1,0.2,0.2,0.3,0.3c0.1,0.1,0.3,0.2,0.5,0.2c0.2,0.1,0.4,0.1,0.6,0.1
				c0.4,0,0.7-0.1,0.9-0.3c0.2-0.2,0.3-0.4,0.3-0.7c0-0.2,0-0.4-0.1-0.5c-0.1-0.1-0.1-0.3-0.2-0.4c-0.1-0.1-0.2-0.2-0.4-0.3
				c-0.1-0.1-0.3-0.2-0.5-0.3l-0.5-0.3c-0.5-0.3-0.9-0.7-1.2-1c-0.3-0.4-0.4-0.8-0.4-1.4c0-0.3,0.1-0.6,0.2-0.8
				c0.1-0.3,0.3-0.5,0.5-0.7c0.2-0.2,0.5-0.3,0.8-0.4c0.3-0.1,0.6-0.2,0.9-0.2c0.3,0,0.6,0,0.8,0.1c0.2,0.1,0.4,0.1,0.6,0.2
				c0.2,0.1,0.3,0.2,0.4,0.3c0.1,0.1,0.2,0.2,0.3,0.2L179,69L179,69z M186.6,70.1c0,0.3,0,0.7,0,0.9c0,0.3,0,0.5-0.1,0.7h-4.1
				c0,1,0.3,1.7,0.6,2.1c0.4,0.5,0.9,0.7,1.6,0.7c0.2,0,0.5,0,0.6-0.1c0.2-0.1,0.4-0.1,0.5-0.2c0.1-0.1,0.3-0.2,0.4-0.2
				c0.1-0.1,0.2-0.1,0.2-0.2l0.5,1c-0.1,0.1-0.1,0.1-0.3,0.2c-0.1,0.1-0.3,0.2-0.5,0.3c-0.2,0.1-0.4,0.2-0.7,0.3
				c-0.3,0.1-0.6,0.1-1,0.1c-0.5,0-1-0.1-1.4-0.3c-0.4-0.2-0.8-0.4-1-0.8c-0.3-0.4-0.5-0.8-0.7-1.4c-0.2-0.5-0.2-1.2-0.2-2
				c0-0.7,0.1-1.3,0.2-1.9c0.2-0.5,0.4-1,0.7-1.3c0.3-0.3,0.6-0.6,1-0.8c0.4-0.2,0.8-0.2,1.2-0.2c0.8,0,1.4,0.2,1.8,0.7
				C186.4,68.4,186.6,69.1,186.6,70.1L186.6,70.1z M184,68.3c-0.5,0-0.9,0.2-1.2,0.6c-0.3,0.4-0.5,1-0.5,1.8h3c0-0.1,0-0.1,0-0.2
				c0-0.1,0-0.2,0-0.3c0-0.6-0.1-1-0.3-1.3C184.8,68.4,184.4,68.3,184,68.3L184,68.3z M192.9,75.5v-5.2c0-0.7-0.1-1.2-0.3-1.5
				c-0.2-0.3-0.6-0.4-1.1-0.4c-0.4,0-0.7,0.1-1,0.3c-0.3,0.2-0.5,0.4-0.6,0.6v6.3h-1.4v-8.1h1.3v0.9h0c0-0.1,0.1-0.2,0.2-0.3
				c0.1-0.1,0.3-0.3,0.4-0.4c0.2-0.1,0.4-0.2,0.6-0.3c0.2-0.1,0.5-0.1,0.8-0.1c0.4,0,0.7,0.1,1,0.2c0.3,0.1,0.5,0.3,0.7,0.5
				c0.2,0.2,0.4,0.5,0.5,0.9c0.1,0.4,0.2,0.8,0.2,1.4v5.3H192.9L192.9,75.5z"/>
		</g>
	</g>
</g>
<g id="Layer_2">
</g>
</svg>
